<svg width="93" height="55" viewBox="0 0 93 55" fill="none" xmlns="http://www.w3.org/2000/svg">
<path d="M32.1966 31.5192C38.8207 31.5192 44.2101 26.1298 44.2101 19.5045C44.2101 12.8804 38.8207 7.49097 32.1966 7.49097C25.5725 7.49097 20.1831 12.8804 20.1831 19.5045C20.1831 26.1298 25.5725 31.5192 32.1966 31.5192ZM32.1966 8.67818C38.1647 8.67818 43.0217 13.5352 43.0217 19.5033C43.0217 25.4726 38.1659 30.3296 32.1966 30.3296C26.2273 30.3296 21.3715 25.4726 21.3715 19.5033C21.3715 13.5352 26.2285 8.67818 32.1966 8.67818Z" fill="white" fill-opacity="0.5" stroke="white" stroke-width="0.2"/>
<path d="M19.9727 35.9387C14.8484 35.9387 10.6807 40.1041 10.6807 45.2237C10.6807 50.3492 14.8484 54.5169 19.9727 54.5169C25.0971 54.5169 29.2648 50.348 29.2648 45.2237C29.2648 40.1041 25.0959 35.9387 19.9727 35.9387ZM19.9727 53.3297C15.5044 53.3297 11.8691 49.6932 11.8691 45.2249C11.8691 40.76 15.5044 37.1283 19.9727 37.1283C24.4411 37.1283 28.0764 40.7612 28.0764 45.2249C28.0764 49.6932 24.4411 53.3297 19.9727 53.3297Z" fill="white" fill-opacity="0.5" stroke="white" stroke-width="0.2"/>
<path d="M75.7252 35.9387C70.6008 35.9387 66.4343 40.1041 66.4343 45.2237C66.4343 50.3492 70.602 54.5169 75.7252 54.5169C80.8484 54.5169 85.0173 50.348 85.0173 45.2237C85.0173 40.1041 80.8484 35.9387 75.7252 35.9387ZM75.7252 53.3297C71.2568 53.3297 67.6227 49.6932 67.6227 45.2249C67.6227 40.76 71.258 37.1283 75.7252 37.1283C80.1924 37.1283 83.8289 40.7612 83.8289 45.2249C83.8289 49.6932 80.1936 53.3297 75.7252 53.3297Z" fill="white" fill-opacity="0.5" stroke="white" stroke-width="0.2"/>
<path d="M92.4365 26.4317L85.1635 12.7972C85.0601 12.6035 84.8581 12.4823 84.6394 12.4823H60.9903H59.2053V1.5942C59.2053 1.2662 58.9391 1 58.6111 1H1.5942C1.2662 1 1 1.2662 1 1.5942V43.4448C1 43.7728 1.2662 44.039 1.5942 44.039H7.8523C8.14702 44.039 8.39658 43.8227 8.44056 43.5315C8.45838 43.4091 8.47858 43.2855 8.50235 43.1584C8.53325 42.9825 8.56771 42.8066 8.60812 42.6307C8.65447 42.4323 8.70557 42.2409 8.75667 42.052C8.80658 41.8785 8.85649 41.7074 8.91354 41.5374C8.97771 41.3473 9.04664 41.1631 9.13933 40.929C9.19875 40.7804 9.2558 40.6342 9.32235 40.4869C9.3984 40.3134 9.48516 40.1387 9.57429 39.964C9.67173 39.7738 9.74423 39.6336 9.82029 39.4981C9.90585 39.3496 9.99379 39.2046 10.0877 39.0584C10.2172 38.8528 10.3111 38.7019 10.4109 38.5617C10.5119 38.4191 10.6165 38.2812 10.7211 38.1445L10.8364 37.9972C10.9172 37.895 11.0004 37.7892 11.0871 37.687C11.2095 37.5432 11.3426 37.397 11.4781 37.2544C11.6207 37.1023 11.7265 36.9894 11.8382 36.8801C11.9451 36.7743 12.0604 36.6733 12.222 36.5283L12.3504 36.4142C12.4502 36.3251 12.5512 36.2372 12.651 36.1552C12.7889 36.0458 12.922 35.946 13.0527 35.8521L13.1918 35.7535C13.3094 35.6667 13.4283 35.58 13.5578 35.4956C13.6873 35.4089 13.8406 35.3185 14.0011 35.2247L14.2007 35.1034C14.2994 35.044 14.4004 34.9858 14.4919 34.9359C14.6666 34.8467 14.8413 34.7624 15.0112 34.6827L15.281 34.558C15.3547 34.5235 15.4283 34.4867 15.4996 34.4569C15.6529 34.394 15.8051 34.3393 15.9691 34.2834L16.2864 34.1682C16.3791 34.1349 16.4729 34.1004 16.568 34.0707C16.7391 34.0172 16.9186 33.9733 17.1075 33.9281L17.4379 33.8449C17.5128 33.8247 17.5877 33.8069 17.678 33.7891C17.8729 33.7499 18.0773 33.7213 18.3672 33.6821L18.5503 33.6548C18.6358 33.6405 18.7202 33.6298 18.8117 33.6203C19.5746 33.5443 20.3792 33.5443 21.1528 33.6215C21.2372 33.6298 21.3252 33.6441 21.4167 33.6572L21.6615 33.6916C21.8742 33.7201 22.0834 33.7499 22.2842 33.7903L22.8558 33.9305C23.0365 33.9733 23.2171 34.0172 23.3894 34.0707C23.488 34.1028 23.5926 34.1396 23.7091 34.1848L23.9895 34.2858C24.144 34.3381 24.2985 34.394 24.434 34.4474L24.9058 34.6673C25.1173 34.7647 25.2873 34.8444 25.4441 34.9252C25.5582 34.987 25.664 35.05 25.7733 35.1177L25.8934 35.189C26.1239 35.3233 26.2653 35.4077 26.402 35.4968C26.5042 35.5645 26.6005 35.6335 26.7122 35.7155L26.8215 35.7951C27.02 35.9401 27.1602 36.0435 27.2969 36.1528C27.4002 36.2336 27.5001 36.3227 27.6165 36.4249L27.708 36.5057C27.8483 36.6293 27.9861 36.7529 28.1168 36.8789C28.2155 36.9752 28.3058 37.0714 28.4104 37.1819C28.6088 37.3959 28.7384 37.5361 28.856 37.6692C28.9689 37.8035 29.0688 37.9318 29.171 38.0637C29.3148 38.2503 29.4312 38.4024 29.5394 38.5581C29.6416 38.7043 29.739 38.8552 29.8472 39.0287C29.9458 39.1868 30.0397 39.3353 30.1288 39.4946C30.2156 39.6502 30.2987 39.8095 30.3807 39.9759C30.4663 40.147 30.5507 40.3134 30.6279 40.4833C30.7004 40.6497 30.7694 40.8161 30.8335 40.9836C30.9072 41.1726 30.9726 41.3485 31.0332 41.5291C31.0902 41.699 31.1449 41.8773 31.1936 42.052C31.2471 42.2481 31.2946 42.4335 31.3386 42.62C31.379 42.7959 31.417 42.9861 31.4503 43.1726L31.5097 43.5292C31.5537 43.8191 31.8033 44.0342 32.0968 44.0342H58.6123H60.9796C60.9844 44.0342 60.9867 44.0366 60.9915 44.0366H63.6048C63.8995 44.0366 64.1502 43.8191 64.193 43.528C64.2097 43.4091 64.2275 43.2939 64.2536 43.1619C64.2822 42.9849 64.3214 42.8007 64.363 42.6189C64.4058 42.4299 64.4545 42.2445 64.5079 42.0567C64.5567 41.8844 64.6078 41.7097 64.6636 41.5445C64.7326 41.3449 64.7967 41.1655 64.8668 40.9884C64.9405 40.8077 65.0035 40.6485 65.0796 40.4833C65.1509 40.3205 65.2341 40.1577 65.3172 39.9925C65.4088 39.8107 65.4908 39.6502 65.5823 39.4898C65.6655 39.3365 65.7641 39.182 65.8865 38.9895C65.9732 38.8505 66.0659 38.7019 66.1658 38.5605C66.2763 38.4048 66.3928 38.2527 66.5199 38.0899C66.6209 37.9592 66.7255 37.8213 66.8479 37.6799C66.9537 37.5527 67.0844 37.4125 67.2151 37.2746L67.3197 37.1641C67.4076 37.0679 67.4956 36.9728 67.5966 36.8765C67.7202 36.7541 67.8568 36.6341 68.0185 36.4879L68.4047 36.1575C68.5331 36.0506 68.6614 35.9579 68.7981 35.8593L68.8955 35.7868C69.088 35.6453 69.1962 35.5669 69.2877 35.5027C69.4517 35.397 69.6109 35.3019 69.7963 35.1938L69.9377 35.1094C70.0411 35.0464 70.1445 34.987 70.2515 34.9299C70.3917 34.8551 70.5414 34.7826 70.69 34.7125L70.9681 34.5841C71.0608 34.5401 71.1535 34.4962 71.245 34.4569C71.3686 34.4058 71.4874 34.3643 71.6062 34.3227L72.3157 34.0719C72.488 34.0184 72.658 33.9768 72.9004 33.9174L73.0894 33.8723C73.1975 33.8437 73.3068 33.814 73.4245 33.7914C73.6622 33.7439 73.9248 33.7071 74.197 33.6714L74.3146 33.6536L74.5416 33.6227C75.3331 33.5443 76.1329 33.5478 76.8911 33.6191C76.9849 33.6298 77.0717 33.6429 77.1668 33.6572L77.3819 33.6892C77.6005 33.7178 77.8192 33.7475 78.0295 33.7891L78.6653 33.9471C78.8222 33.9852 78.9814 34.0232 79.1359 34.0707C79.25 34.1052 79.3558 34.1432 79.4699 34.186L79.6149 34.2383C79.8549 34.3215 80.0249 34.3809 80.1853 34.4486C80.297 34.495 80.4051 34.5461 80.5216 34.6031L80.7367 34.7041C80.9364 34.798 81.0671 34.8598 81.1942 34.9276C81.3095 34.9882 81.4141 35.0511 81.521 35.1153L81.7801 35.2698C81.9037 35.3435 82.0297 35.4184 82.1402 35.4897C82.265 35.5752 82.3815 35.6608 82.5621 35.7927C82.7546 35.9341 82.9008 36.0411 83.0374 36.1504C83.161 36.2514 83.2823 36.3584 83.407 36.4713L83.8634 36.8837C83.9513 36.9692 84.0405 37.0655 84.1854 37.2188C84.3625 37.4077 84.4897 37.5432 84.6097 37.687C84.7297 37.8261 84.8367 37.9639 84.9484 38.1089C85.072 38.2693 85.1837 38.4143 85.2883 38.5617C85.3762 38.6865 85.4618 38.8195 85.5818 39.0085C85.6888 39.1784 85.7838 39.3306 85.8718 39.4839L86.1297 39.9711C86.2164 40.1446 86.302 40.3157 86.3792 40.4916C86.4493 40.6449 86.5135 40.8077 86.5872 40.9955C86.6597 41.1738 86.7238 41.3508 86.7845 41.5279C86.8439 41.7038 86.8974 41.8844 86.9508 42.0686C87.0031 42.2481 87.0518 42.4347 87.0911 42.607L87.1232 42.765C87.1517 42.9029 87.1802 43.0372 87.2052 43.1881C87.2265 43.2903 87.2408 43.3961 87.2634 43.5351C87.3085 43.8251 87.5569 44.039 87.8504 44.039H91.9124C92.2404 44.039 92.5066 43.7728 92.5066 43.4448V26.7122C92.5066 26.6135 92.4816 26.5173 92.4365 26.4317ZM58.0181 13.0777V42.8458H32.5983C32.5674 42.6795 32.5317 42.5131 32.4961 42.3538C32.4497 42.1518 32.3975 41.9522 32.338 41.7347C32.281 41.535 32.2216 41.3378 32.1586 41.1512C32.092 40.9551 32.0207 40.7638 31.9399 40.5546C31.8674 40.3704 31.7926 40.1862 31.7118 40.0008C31.6262 39.8119 31.5347 39.6288 31.4432 39.447C31.3529 39.2652 31.2602 39.0869 31.1651 38.9182C31.0676 38.7423 30.9631 38.5759 30.8407 38.3798C30.7337 38.2099 30.6244 38.0411 30.5115 37.8795C30.3938 37.7108 30.2667 37.5432 30.1122 37.3424C30.0028 37.1986 29.8899 37.0572 29.7592 36.9003C29.6285 36.7494 29.4918 36.602 29.2601 36.3536C29.1591 36.2467 29.0581 36.1397 28.9452 36.0304C28.799 35.8902 28.6481 35.7535 28.4948 35.618L28.3878 35.5229C28.2725 35.4207 28.1573 35.3197 28.0396 35.2258C27.8911 35.1058 27.7389 34.9941 27.5227 34.8384L27.3979 34.7469C27.2885 34.6673 27.178 34.5865 27.0592 34.508C26.9071 34.4082 26.7502 34.3155 26.4983 34.1682L26.3854 34.1016C26.2641 34.0279 26.1417 33.9554 26.0003 33.8782C25.8197 33.7855 25.6355 33.6987 25.4097 33.5942L25.1886 33.4896C25.0971 33.4468 25.0033 33.4028 24.8856 33.3529C24.718 33.2864 24.5457 33.2246 24.3841 33.1687L24.125 33.076C24.0002 33.0285 23.8743 32.9833 23.7519 32.9441C23.5498 32.8811 23.3431 32.83 23.147 32.7825L22.5326 32.6328C22.2985 32.5852 22.062 32.5519 21.829 32.5199L21.5949 32.4866C21.4856 32.4688 21.3763 32.4533 21.2729 32.4438C20.4208 32.3594 19.5283 32.3606 18.6976 32.4426C18.5835 32.4533 18.4718 32.4688 18.3661 32.4866L18.126 32.521C17.8919 32.5531 17.6601 32.5852 17.4534 32.628C17.35 32.6482 17.249 32.672 17.0766 32.7159L16.8247 32.7801C16.6179 32.83 16.4123 32.8811 16.2174 32.9417C16.1033 32.9774 15.9928 33.0178 15.8431 33.0725L15.5793 33.1675C15.4046 33.2281 15.2311 33.2899 15.0492 33.3636C14.9542 33.4028 14.8627 33.4468 14.6832 33.5324L14.5121 33.612C14.3267 33.6999 14.1401 33.7879 13.9416 33.8901C13.8216 33.9554 13.7028 34.022 13.5911 34.0909L13.4021 34.205C13.2262 34.3072 13.0515 34.4118 12.9101 34.5057C12.7663 34.5984 12.6273 34.6994 12.5013 34.7933L12.3706 34.886C12.2208 34.9929 12.0711 35.1046 11.9131 35.2306C11.793 35.3269 11.6766 35.4291 11.5649 35.5301L11.3878 35.6869C11.2606 35.801 11.1335 35.9151 11.0111 36.034C10.8887 36.1552 10.7722 36.2776 10.6165 36.4439C10.468 36.602 10.3206 36.7624 10.1875 36.9193C10.0912 37.0334 9.99854 37.1487 9.90228 37.2723L9.78701 37.4208C9.67173 37.5705 9.55765 37.7203 9.44594 37.8772C9.33423 38.0364 9.22965 38.2004 9.08704 38.4274C8.98603 38.5878 8.88739 38.7471 8.79113 38.9134C8.70794 39.062 8.62832 39.2165 8.52018 39.4256C8.42035 39.6217 8.3229 39.8178 8.24091 40.0044C8.16841 40.1636 8.10424 40.3264 8.01867 40.5404C7.93786 40.7424 7.86181 40.948 7.78931 41.1607C7.72633 41.3461 7.67047 41.535 7.61462 41.7323C7.55639 41.9427 7.50053 42.1506 7.45181 42.3657C7.41378 42.5309 7.38051 42.6925 7.35198 42.8518H2.1884V2.1884H58.0181V13.0777ZM60.3961 42.8447H59.2053V13.6719H60.3961V42.8447ZM91.3182 42.8494H88.3543C88.3329 42.7401 88.3115 42.6307 88.2878 42.5214L88.2533 42.3527C88.2034 42.1423 88.1499 41.9332 88.0917 41.7359C88.0347 41.5362 87.9764 41.3401 87.9111 41.1441C87.8433 40.9468 87.772 40.7519 87.6841 40.5297C87.6128 40.3502 87.5415 40.1696 87.4642 40.0008C87.3799 39.8131 87.2883 39.6265 87.1897 39.4316C87.103 39.2604 87.0138 39.0941 86.9128 38.9075C86.8118 38.7292 86.7072 38.5617 86.5468 38.3085C86.4529 38.1612 86.3578 38.0126 86.2604 37.8748C86.1463 37.7143 86.0239 37.5527 85.8896 37.3816C85.766 37.2223 85.6472 37.0679 85.5152 36.9134C85.3869 36.7612 85.2479 36.6139 85.0007 36.3477C84.8973 36.2372 84.7939 36.1278 84.6881 36.0256C84.574 35.9175 84.4564 35.8117 84.3352 35.7036L84.2009 35.5847C84.0666 35.4611 83.9287 35.3411 83.7826 35.2235C83.6304 35.1011 83.4724 34.9858 83.2014 34.7873C83.0743 34.6946 82.9459 34.6007 82.7998 34.5009C82.6667 34.4142 82.5264 34.3298 82.3767 34.2418L82.1319 34.0957C82.0083 34.022 81.8859 33.9483 81.7504 33.8758C81.6102 33.8009 81.4652 33.7332 81.1526 33.587L81.0374 33.5324C80.9102 33.4694 80.7807 33.4088 80.6464 33.3529C80.4634 33.2769 80.2744 33.2103 79.9951 33.1129L79.8787 33.0713C79.7503 33.0237 79.6208 32.9798 79.4877 32.9382C79.3118 32.8835 79.1264 32.8383 78.9149 32.7872L78.5489 32.6922C78.4609 32.6696 78.3694 32.647 78.2636 32.6256C78.0272 32.5781 77.7823 32.546 77.5375 32.5127L77.3557 32.4854C77.2476 32.4664 77.1394 32.4521 77.0135 32.4379C76.1661 32.3559 75.301 32.3547 74.4227 32.4414C74.3479 32.4497 74.2742 32.4604 74.0353 32.4961C73.7477 32.5329 73.4578 32.5745 73.1987 32.6256C73.0573 32.6518 72.9206 32.6886 72.7994 32.7207L72.5463 32.7825C72.3514 32.83 72.1565 32.8776 71.9628 32.9394C71.8748 32.9655 71.7893 32.9976 71.6181 33.0582L71.2129 33.2032C71.0727 33.2519 70.9324 33.303 70.7839 33.3648C70.6722 33.4123 70.5652 33.4634 70.4642 33.5122L70.1921 33.6381C70.0197 33.7166 69.8498 33.7986 69.6882 33.8853C69.5634 33.9531 69.4434 34.0232 69.3269 34.0933L69.17 34.1872C68.9953 34.2906 68.8195 34.3928 68.6246 34.5199C68.5093 34.5996 68.3952 34.6827 68.1908 34.8337L68.0993 34.9014C67.9495 35.0095 67.8034 35.1189 67.6429 35.2484L67.1997 35.6299C67.0487 35.7642 66.9002 35.8985 66.7695 36.0268C66.6554 36.1362 66.5484 36.2502 66.4486 36.3596L66.3512 36.4618C66.2026 36.6198 66.0553 36.7779 65.9412 36.9134C65.8104 37.0655 65.6892 37.2212 65.5787 37.3661C65.4456 37.5361 65.3161 37.7036 65.1948 37.876C65.0808 38.0376 64.975 38.2063 64.8573 38.3953C64.7468 38.5688 64.6351 38.7459 64.5412 38.9158C64.4462 39.0869 64.357 39.2604 64.256 39.4589C64.1633 39.6431 64.0706 39.8273 63.9934 39.9996C63.9149 40.1731 63.8436 40.3478 63.7628 40.551C63.6856 40.7471 63.6155 40.9408 63.5382 41.1643C63.4752 41.3544 63.417 41.5457 63.3647 41.7335C63.3053 41.9391 63.2518 42.1483 63.2043 42.3562C63.1662 42.5238 63.1294 42.6913 63.1021 42.8482H61.5845V13.6719H84.2829L91.3182 26.8607V42.8494Z" fill="white" fill-opacity="0.5" stroke="white" stroke-width="0.2"/>
<path d="M32.1967 20.0999H37.0977C37.4257 20.0999 37.6919 19.8337 37.6919 19.5057C37.6919 19.1777 37.4257 18.9115 37.0977 18.9115H32.7909V11.9404C32.7909 11.6124 32.5247 11.3462 32.1967 11.3462C31.8687 11.3462 31.6025 11.6124 31.6025 11.9404V19.5057C31.6025 19.8337 31.8687 20.0999 32.1967 20.0999Z" fill="white" fill-opacity="0.5" stroke="white" stroke-width="0.2"/>
</svg>
