<svg width="57" height="64" viewBox="0 0 57 64" fill="none" xmlns="http://www.w3.org/2000/svg">
<path d="M0.59101 0.000346564C0.257628 0.0636194 -0.00587846 0.388275 9.97386e-05 0.727621V57.455C0.000136102 57.8358 0.346588 58.1822 0.727374 58.1823H11.6365V63.2732C11.6365 63.654 11.983 64.0004 12.3638 64.0005H51.6366C52.0174 64.0004 52.3638 63.654 52.3638 63.2732V24.7277H56.0002C56.381 24.7276 56.7275 24.3812 56.7275 24.0004V12.364C56.7275 11.9832 56.381 11.6368 56.0002 11.6367H52.3638V6.54581C52.3638 6.16501 52.0174 5.81861 51.6366 5.81854H31.0002C27.8476 3.08813 24.4774 0.159438 24.4774 0.159438C24.3437 0.0524558 24.1713 -0.00503526 24.0001 0.000346564C16.2006 0.000346564 8.38037 0.000346564 0.59101 0.000346564ZM1.45465 1.4549H23.4547C24.2976 4.2349 24.5918 7.35934 24.682 10.1822H10.9092V11.6367H24.7047C24.7274 11.6273 24.7047 11.6367 24.7047 11.6367C24.7147 12.3911 24.7274 13.1472 24.7274 13.8186C24.7352 14.2327 25.1591 14.5878 25.5683 14.5231C30.5574 13.8103 35.3056 13.8919 39.2729 15.7277V56.7277H1.45461L1.45465 1.4549ZM25.3411 2.86399C29.8741 6.74385 34.0047 10.3423 37.7047 13.5458C33.9858 12.3645 30.0146 12.3725 26.1592 12.9776C26.1578 9.93168 26.1248 6.39847 25.3411 2.86399ZM32.682 7.27309H50.9093V62.5459H13.091V58.1823H40.0002C40.381 58.1822 40.7274 57.8358 40.7275 57.455V52.3641H44.3638C44.7446 52.364 45.0911 52.0176 45.0911 51.6368V40.0004C45.0911 39.6196 44.7446 39.2732 44.3638 39.2732H40.7275V14.5913C40.7101 14.1836 40.5591 14.1282 40.3184 13.8865C37.7807 11.6934 35.0186 9.29605 32.682 7.27278V7.27309ZM52.3638 13.0913H55.2729V23.2731H52.3638V13.0913ZM6.54557 16.0004V17.4549H34.182V16.0004H6.54557ZM6.54557 21.8186V23.2731H34.182V21.8186H6.54557ZM6.54557 27.6368V29.0913H34.182V27.6368H6.54557ZM6.54557 33.455V34.9095H34.182V33.455H6.54557ZM6.54557 39.2732V40.7277H34.182V39.2732H6.54557ZM40.7275 40.7277H43.6366V50.9095H40.7275V40.7277ZM6.54557 45.0913V46.5459H34.182V45.0913H6.54557ZM6.54557 50.9095V52.3641H34.182V50.9095H6.54557Z" fill="white" fill-opacity="0.5"/>
</svg>
