<svg width="47" height="60" viewBox="0 0 47 60" fill="none" xmlns="http://www.w3.org/2000/svg">
<path d="M23.192 60C25.4738 60 27.6621 59.0936 29.2756 57.4801C30.8891 55.8666 31.7955 53.6783 31.7955 51.3965V50.9476H41.8953C43.0858 50.9476 44.2275 50.4747 45.0693 49.6329C45.9111 48.7911 46.384 47.6494 46.384 46.4589V43.4663C46.399 42.3948 46.0301 41.3532 45.3441 40.53C44.658 39.7067 43.7001 39.1561 42.6434 38.9776V28.0549C42.6651 23.772 41.2888 19.5991 38.7234 16.1695C36.1579 12.7399 32.5436 10.2411 28.4289 9.05237V5.23691C28.4289 3.84799 27.8772 2.51597 26.8951 1.53386C25.913 0.551744 24.5809 0 23.192 0C21.8031 0 20.4711 0.551744 19.489 1.53386C18.5069 2.51597 17.9551 3.84799 17.9551 5.23691V9.05237C13.8405 10.2411 10.2261 12.7399 7.66068 16.1695C5.09527 19.5991 3.71894 23.772 3.74065 28.0549V38.9776C2.69673 39.154 1.74878 39.6938 1.06429 40.5015C0.379805 41.3092 0.00283799 42.3328 0 43.3915V46.384C0 47.5745 0.472923 48.7163 1.31473 49.5581C2.15654 50.3999 3.29828 50.8728 4.48878 50.8728H14.5885V51.3217C14.5787 52.4578 14.7939 53.5846 15.2218 54.6371C15.6498 55.6896 16.2819 56.6469 17.0818 57.4537C17.8817 58.2606 18.8335 58.901 19.8822 59.338C20.931 59.7751 22.0559 60 23.192 60ZM30.2993 51.3965C30.2993 53.2815 29.5505 55.0892 28.2176 56.4221C26.8847 57.7549 25.077 58.5037 23.192 58.5037C21.3071 58.5037 19.4993 57.7549 18.1665 56.4221C16.8336 55.0892 16.0848 53.2815 16.0848 51.3965V50.9476H30.2993V51.3965ZM19.4514 5.23691C19.4514 4.24483 19.8455 3.29338 20.547 2.59187C21.2485 1.89036 22.1999 1.49626 23.192 1.49626C24.1841 1.49626 25.1356 1.89036 25.8371 2.59187C26.5386 3.29338 26.9327 4.24483 26.9327 5.23691V8.6783C24.4632 8.18651 21.9209 8.18651 19.4514 8.6783V5.23691ZM5.23691 28.0549C5.23691 25.697 5.70133 23.3622 6.60366 21.1837C7.50599 19.0053 8.82855 17.026 10.4958 15.3587C12.1631 13.6914 14.1425 12.3688 16.3209 11.4665C18.4993 10.5642 20.8341 10.0998 23.192 10.0998C25.5499 10.0998 27.8847 10.5642 30.0631 11.4665C32.2416 12.3688 34.2209 13.6914 35.8882 15.3587C37.5555 17.026 38.8781 19.0053 39.7804 21.1837C40.6827 23.3622 41.1471 25.697 41.1471 28.0549V38.9027H5.23691V28.0549ZM4.48878 49.3766C3.69511 49.3766 2.93395 49.0613 2.37275 48.5001C1.81154 47.9389 1.49626 47.1777 1.49626 46.384V43.3915C1.49626 42.5979 1.81154 41.8367 2.37275 41.2755C2.93395 40.7143 3.69511 40.399 4.48878 40.399H41.8953C42.6889 40.399 43.4501 40.7143 44.0113 41.2755C44.5725 41.8367 44.8878 42.5979 44.8878 43.3915V46.384C44.8878 47.1777 44.5725 47.9389 44.0113 48.5001C43.4501 49.0613 42.6889 49.3766 41.8953 49.3766H4.48878Z" fill="white" fill-opacity="0.5"/>
</svg>
