<svg width="61" height="55" viewBox="0 0 61 55" fill="none" xmlns="http://www.w3.org/2000/svg">
<path fill-rule="evenodd" clip-rule="evenodd" d="M9.70427 1.58992L9.76479 1.59224L9.82476 1.59514L9.88531 1.59856L9.94535 1.60368L10.0054 1.6099L10.1257 1.62456L10.1858 1.6341L10.2455 1.64423L10.3057 1.65488L10.4251 1.67956L10.4854 1.69354L10.5452 1.70809L10.6045 1.72323L10.7242 1.75677L10.7841 1.77465L10.8434 1.79311L10.9034 1.81321L10.9622 1.83335L11.0222 1.85456L11.0817 1.87634L11.1411 1.89923L11.2023 1.92371L11.3197 1.97123L11.4383 2.02313L11.5576 2.07777L11.6763 2.13521L11.7952 2.19487L11.9147 2.25727L12.0337 2.32247L12.1528 2.38988L12.2719 2.45951L12.3917 2.53188L12.5105 2.60652L12.6304 2.68333L12.7498 2.76182L12.8694 2.84364L12.9889 2.92656L13.1086 3.01171L13.2283 3.09906L13.3481 3.18864L13.4673 3.2799L13.5872 3.37279L13.7066 3.46849L13.8261 3.56529L13.9461 3.66372L14.0651 3.76332L14.1847 3.86566L14.3032 3.96916L14.4224 4.07429L14.5416 4.18053L14.779 4.39861L15.0149 4.62174L15.1327 4.73526L15.2499 4.85046L15.3666 4.96625L15.5996 5.20172L15.7159 5.3214L15.8311 5.44225L15.9457 5.56367L16.0604 5.6862L16.1746 5.8093L16.2877 5.93357L16.4008 6.05894L16.5134 6.18489L16.7358 6.43858L16.8457 6.56632L16.9556 6.69516L17.0644 6.82405L17.1726 6.95352L17.2803 7.08357L17.4925 7.34493L17.7008 7.60701L17.9058 7.87034L18.0069 8.0029L18.1069 8.1344L18.3042 8.39919L18.4965 8.66364L18.591 8.79538L18.6843 8.92718L18.7766 9.05902L18.8672 9.19038L18.9572 9.32122L19.0449 9.45215L19.1322 9.58255L19.2177 9.71247L19.3015 9.84191L19.3848 9.97082L19.4664 10.0992L19.5464 10.2272L19.6246 10.3547L19.7017 10.4811L19.7766 10.6076L19.8509 10.7325L19.923 10.8574L19.9934 10.9808L20.062 11.1037L20.1296 11.2255L20.1949 11.3464L20.2585 11.4667L20.321 11.586L20.3806 11.7038L20.4392 11.8216L20.4954 11.9372L20.55 12.0524L20.6023 12.1666L20.653 12.2792L20.7019 12.3913L20.7486 12.5013L20.7935 12.6109L20.8363 12.7194L20.8768 12.8269L20.9149 12.9323L20.9509 13.0377L20.9852 13.1416L21.0172 13.2445L21.0464 13.3459L21.0734 13.4462L21.0873 13.5033L21.1002 13.5593L21.1119 13.6154L21.1231 13.672L21.1326 13.7282L21.141 13.7844L21.1488 13.8412L21.155 13.8975L21.1651 14.0102L21.1685 14.0661L21.1708 14.122L21.172 14.178L21.1726 14.2335L21.1716 14.2896L21.17 14.3451L21.1678 14.4001L21.1645 14.4552L21.1601 14.5103L21.1546 14.5655L21.1486 14.6201L21.1331 14.7284L21.1247 14.782L21.1148 14.8363L21.1048 14.8894L21.0926 14.9427L21.0809 14.9954L21.0681 15.0481L21.0542 15.1008L21.0253 15.2053L21.0091 15.257L20.992 15.3111L20.9579 15.4108L20.9205 15.5117L20.8798 15.6117L20.8375 15.7112L20.7928 15.8097L20.7454 15.9067L20.6968 16.0026L20.646 16.0986L20.5923 16.1931L20.5376 16.2876L20.4811 16.3805L20.4225 16.4735L20.3627 16.5655L20.3011 16.6559L20.238 16.7469L20.1737 16.8368L20.1077 16.9263L20.04 17.0152L19.9718 17.1037L19.9019 17.1917L19.8314 17.2791L19.7592 17.3661L19.6865 17.4525L19.6126 17.539L19.5371 17.625L19.3849 17.7959L19.3072 17.8809L19.1505 18.0498L19.0699 18.1344L18.9098 18.3012L18.747 18.4676L18.583 18.633L18.4179 18.7984L18.2522 18.9622L17.5892 19.6128L17.4261 19.7737L17.2648 19.9339L17.1056 20.0941L16.9492 20.2536L16.795 20.413L16.5722 20.6497L16.4285 20.807L16.2897 20.9634L16.2217 21.0413L16.0906 21.1964L16.0276 21.2735L15.9657 21.3506L15.9048 21.4276L15.8456 21.504L15.7887 21.5803L15.7328 21.6554L15.6797 21.731L15.6271 21.806L15.5767 21.8809L15.528 21.9552L15.4821 22.0288L15.4372 22.1023L15.3945 22.1747L15.3535 22.2475L15.3147 22.3191L15.2781 22.3906L15.2437 22.4609L15.2115 22.5312L15.1809 22.6007L15.1531 22.6697L15.127 22.7379L15.1025 22.8078L15.0918 22.8388L15.0812 22.872L15.0712 22.9057L15.0617 22.9389L15.0527 22.9715L15.0443 23.0046L15.0359 23.0366L15.0286 23.0696L15.0212 23.1016L15.015 23.1335L15.0094 23.1659L14.9991 23.2296L14.9946 23.2608L14.9906 23.2926L14.9877 23.3244L14.9847 23.355L14.9824 23.3862L14.9806 23.4179L14.9799 23.4485L14.9786 23.4796L14.9785 23.5106L14.9794 23.5417L14.9798 23.5722L14.9828 23.6342L14.9855 23.6657L14.9918 23.7275L14.9961 23.7584L15.0058 23.8212L15.0112 23.8521L15.0183 23.8834L15.0248 23.9153L15.0325 23.9471L15.0406 23.9784L15.0593 24.043L15.0691 24.0747L15.0991 24.1649L15.1319 24.2578L15.167 24.3528L15.2044 24.4499L15.2446 24.5496L15.2883 24.6514L15.3331 24.7554L15.3813 24.8615L15.4323 24.9702L15.4856 25.0799L15.5412 25.1917L15.5991 25.3057L15.6592 25.4206L15.7216 25.5377L15.7868 25.6563L15.8544 25.777L15.9235 25.8982L15.9956 26.0221L16.0693 26.1464L16.1453 26.2718L16.2235 26.3993L16.3035 26.5283L16.3857 26.6573L16.4701 26.7884L16.5557 26.9205L16.6436 27.0536L16.7337 27.1878L16.8255 27.3224L16.919 27.4587L17.0141 27.5954L17.111 27.7337L17.209 27.8719L17.3098 28.0117L17.4117 28.1514L17.5148 28.2922L17.6196 28.4335L17.7265 28.5758L17.8346 28.718L17.9439 28.8613L18.0548 29.0051L18.1668 29.1488L18.2805 29.293L18.3954 29.4383L18.5113 29.5835L18.6284 29.7287L18.8664 30.0205L18.9868 30.1667L19.1089 30.3133L19.2316 30.4593L19.4802 30.7523L19.7332 31.0452L19.8609 31.1915L20.1178 31.4836L20.3786 31.775L20.5101 31.9207L20.6421 32.0657L20.9078 32.3552L21.1756 32.6424L21.4462 32.9278L21.5814 33.0694L21.8536 33.352L22.1267 33.6312L22.4014 33.9075L22.5388 34.0446L22.8144 34.3153L22.9522 34.4496L23.2277 34.7159L23.3654 34.8469L23.6402 35.106L23.9148 35.3607L24.1887 35.6105L24.3244 35.7332L24.4602 35.8548L24.7315 36.0935L24.866 36.2107L25.0005 36.3269L25.1338 36.4408L25.267 36.5536L25.3997 36.6648L25.662 36.8824L25.7928 36.9886L25.9225 37.0928L26.0515 37.1952L26.1789 37.2961L26.3061 37.3948L26.4328 37.4918L26.5583 37.5867L26.682 37.68L26.8052 37.7705L26.9272 37.86L27.0485 37.9467L27.1676 38.0313L27.2866 38.1137L27.4033 38.194L27.5194 38.2726L27.6337 38.3475L27.7469 38.4212L27.8584 38.4923L27.968 38.5607L28.0766 38.6269L28.1833 38.6904L28.2889 38.7518L28.3917 38.8105L28.4932 38.8659L28.5924 38.9192L28.6899 38.9699L28.7851 39.0184L28.8786 39.063L28.9691 39.1051L29.0574 39.145L29.0878 39.1581L29.1181 39.1701L29.1776 39.193L29.2073 39.2033L29.2666 39.2218L29.2969 39.2304L29.3561 39.2467L29.3863 39.2531L29.4159 39.2601L29.446 39.2654L29.4756 39.2713L29.5062 39.2761L29.5357 39.2809L29.597 39.2882L29.627 39.2913L29.6576 39.2938L29.7198 39.2977L29.7509 39.2986L29.7825 39.2988L29.8135 39.2986L29.8457 39.2982L29.8773 39.2974L29.9415 39.2946L29.9736 39.292L30.0068 39.2895L30.0731 39.2821L30.1062 39.2773L30.1399 39.273L30.1708 39.2683L30.242 39.2558L30.3114 39.2416L30.3813 39.2258L30.4523 39.2076L30.5237 39.1878L30.5963 39.1658L30.6704 39.142L30.745 39.1165L30.8201 39.0882L30.8963 39.0588L30.9729 39.0276L31.0506 38.9942L31.1288 38.9592L31.2075 38.9224L31.2868 38.8839L31.367 38.8432L31.4478 38.8019L31.529 38.7578L31.6108 38.7132L31.6926 38.6663L31.7759 38.6177L31.8587 38.5685L31.9424 38.5171L32.0268 38.4651L32.1111 38.4109L32.1959 38.3561L32.2806 38.3002L32.3665 38.2432L32.4523 38.185L32.5386 38.1252L32.6243 38.0648L32.7106 38.0038L32.8858 37.8779L33.0604 37.7493L33.2365 37.6178L33.4132 37.4846L33.5903 37.3486L33.7685 37.2115L33.9466 37.0732L34.305 36.7944L34.6652 36.5161L34.8461 36.3783L35.0276 36.2421L35.2092 36.107L35.3898 35.9753L35.482 35.9091L35.5731 35.8441L35.6643 35.7801L35.7561 35.7167L35.8478 35.6544L35.9396 35.5932L36.032 35.5325L36.1239 35.4725L36.2163 35.414L36.3088 35.3567L36.4019 35.2998L36.5881 35.1906L36.7757 35.0869L36.8706 35.0372L36.9645 34.9887L37.0595 34.9423L37.1546 34.8971L37.2503 34.8535L37.3472 34.812L37.4435 34.7723L37.5405 34.7341L37.6386 34.6982L37.7368 34.6644L37.8357 34.6323L37.9351 34.603L38.0352 34.5764L38.1365 34.5519L38.2373 34.5303L38.3365 34.5114L38.3906 34.5024L38.4933 34.4879L38.5452 34.4811L38.5971 34.4755L38.6491 34.471L38.7011 34.4676L38.7537 34.4647L38.8058 34.4624L38.8584 34.4606L38.911 34.46L38.9637 34.4604L39.0165 34.462L39.0698 34.4641L39.1753 34.4716L39.2287 34.477L39.2816 34.483L39.3345 34.4901L39.388 34.4977L39.4409 34.507L39.4939 34.5174L39.6 34.5405L39.6525 34.5537L39.7051 34.568L39.7577 34.5834L39.8103 34.6L39.8624 34.6171L39.914 34.6359L39.9662 34.6552L40.0179 34.6762L40.069 34.6978L40.1202 34.7205L40.2102 34.7632L40.3014 34.808L40.3927 34.855L40.4841 34.9053L40.5766 34.9567L40.6692 35.0114L40.7631 35.0683L40.8575 35.1268L40.9525 35.1881L41.0476 35.2515L41.1434 35.3166L41.2403 35.3839L41.3378 35.454L41.436 35.5256L41.5347 35.5989L41.6341 35.675L41.7341 35.7527L41.8347 35.832L41.9365 35.9135L42.0378 35.9967L42.1402 36.082L42.2433 36.169L42.4501 36.3479L42.5545 36.4404L42.6588 36.534L42.8688 36.7266L42.9745 36.8257L43.0802 36.9259L43.1865 37.0277L43.2928 37.1306L43.3992 37.2358L43.5056 37.342L43.6121 37.4494L43.7186 37.5579L43.8257 37.668L43.9328 37.7792L44.0395 37.8921L44.1461 38.0061L44.2523 38.1207L44.359 38.2369L44.5709 38.4722L44.6766 38.5918L44.7818 38.712L44.8871 38.8332L44.9923 38.9556L45.0959 39.0786L45.1996 39.2028L45.3033 39.328L45.4059 39.4533L45.5085 39.5797L45.6106 39.7067L45.711 39.8343L45.8115 39.963L45.9114 40.0922L46.0102 40.2216L46.1085 40.3515L46.3024 40.6131L46.3979 40.7448L46.493 40.8771L46.6792 41.1423L46.7704 41.2753L46.861 41.4089L46.9505 41.5425L47.039 41.6762L47.1257 41.8105L47.2114 41.9449L47.296 42.0793L47.3789 42.2132L47.4607 42.3483L47.5414 42.4823L47.6204 42.617L47.6972 42.7517L47.7734 42.8859L47.848 43.0207L47.921 43.1551L47.9922 43.289L48.0618 43.4235L48.1292 43.557L48.1954 43.6905L48.2594 43.8242L48.3223 43.9579L48.383 44.0906L48.4415 44.2234L48.4982 44.3557L48.5528 44.4869L48.6056 44.6189L48.6557 44.7503L48.7042 44.8814L48.7509 45.0119L48.7948 45.142L48.836 45.2716L48.8755 45.4008L48.9128 45.5301L48.9467 45.6584L48.9789 45.7863L49.0084 45.9137L49.0351 46.0406L49.0583 46.1655L49.0698 46.231L49.0806 46.2938L49.0898 46.3572L49.0984 46.4201L49.1064 46.4824L49.1139 46.5453L49.1203 46.6072L49.1261 46.6696L49.1355 46.7946L49.1385 46.8566L49.141 46.918L49.1429 46.9801L49.1437 47.0422L49.1434 47.1032L49.1425 47.1649L49.1411 47.2259L49.1386 47.2871L49.1343 47.3477L49.1296 47.409L49.1242 47.4697L49.1178 47.5304L49.1016 47.651L49.0918 47.7108L49.0809 47.7706L49.0694 47.8299L49.0568 47.8893L49.0426 47.9482L49.0272 48.0071L49.0108 48.0661L48.9937 48.1245L48.975 48.1825L48.9557 48.2399L48.9347 48.2969L48.9126 48.3539L48.8889 48.4104L48.8646 48.4664L48.8386 48.5219L48.8115 48.5775L48.7832 48.632L48.7533 48.686L48.7222 48.739L48.69 48.792L48.6567 48.844L48.6222 48.896L48.5861 48.9464L48.5489 48.9969L48.5105 49.0463L48.472 49.0935L48.434 49.1379L48.3976 49.1805L48.359 49.2233L48.2807 49.3078L48.2382 49.3512L48.1559 49.4331L48.0692 49.5163L47.9786 49.599L47.8858 49.6819L47.7891 49.7644L47.6885 49.8465L47.5857 49.9287L47.4801 50.0105L47.3701 50.0925L47.2584 50.174L47.1428 50.2562L47.0245 50.338L46.9028 50.4199L46.7784 50.5014L46.6512 50.5836L46.5212 50.6654L46.3879 50.7473L46.2518 50.8287L46.1134 50.9103L45.9718 50.992L45.8274 51.0733L45.6807 51.1547L45.5313 51.2356L45.3786 51.3167L45.2241 51.3973L45.0669 51.4775L44.907 51.5583L44.7453 51.6387L44.4137 51.7982L44.2448 51.8772L43.8998 52.035L43.5459 52.191L43.3658 52.2683L42.9996 52.4215L42.8134 52.4974L42.6261 52.5723L42.4366 52.6472L42.2448 52.7212L42.0513 52.7946L41.8562 52.8676L41.6599 52.9395L41.4619 53.011L41.2617 53.0814L41.0609 53.1513L40.8579 53.2202L40.6543 53.2885L40.4485 53.3559L40.2415 53.4222L40.0333 53.4874L39.8241 53.5527L39.6137 53.6158L39.4016 53.6784L39.1894 53.74L38.9751 53.8005L38.7607 53.8599L38.5445 53.9177L38.3284 53.9744L38.1105 54.0306L37.6736 54.1387L37.4539 54.19L37.2337 54.2408L37.0123 54.2905L36.7909 54.338L36.5689 54.385L36.3463 54.4304L36.1236 54.4735L35.9004 54.5161L35.6765 54.557L35.4526 54.5958L35.2286 54.6334L35.0046 54.6688L34.7794 54.7032L34.5553 54.7353L34.3306 54.7669L34.1063 54.7957L33.8815 54.8228L33.6572 54.8482L33.4333 54.872L33.2083 54.8936L32.9849 54.9134L32.7614 54.9311L32.5385 54.947L32.3154 54.9608L32.0929 54.9728L31.8703 54.9827L31.6493 54.9897L31.4282 54.9956L31.2082 54.9992L30.9886 55L30.769 54.9986L30.551 54.9955L30.3334 54.9896L30.118 54.9813L30.0092 54.9762L29.9009 54.9704L29.7937 54.9646L29.6865 54.9577L29.5786 54.9502L29.4725 54.9422L29.3658 54.9336L29.2596 54.9244L29.0471 54.9038L28.8368 54.881L28.6275 54.8547L28.5228 54.8405L28.4187 54.8268L28.3151 54.8114L28.2114 54.7949L28.1084 54.7789L27.9032 54.7436L27.6991 54.7049L27.5975 54.685L27.4971 54.6639L27.396 54.6423L27.2955 54.6201L27.1956 54.5973L26.9967 54.5484L26.7999 54.4972L26.7015 54.4705L26.6041 54.4426L26.5073 54.4141L26.4099 54.3852L26.3136 54.355L26.2178 54.3243L26.1226 54.293L25.9331 54.227L25.839 54.1935L25.7458 54.1588L25.6527 54.1229L25.5601 54.0865L25.4679 54.0484L25.3764 54.0109L25.2853 53.9716L25.1948 53.9318L25.1043 53.8909L25.0154 53.8493L24.9265 53.8066L24.8381 53.7634L24.7507 53.719L24.6544 53.6694L24.558 53.6188L24.461 53.5676L24.267 53.4608L24.1688 53.4063L24.0711 53.3501L23.9718 53.2935L23.8735 53.2357L23.7741 53.1768L23.6747 53.1169L23.5746 53.0564L23.4746 52.9948L23.2733 52.8683L23.172 52.8035L23.0702 52.7381L22.9677 52.671L22.7633 52.5353L22.5572 52.3957L22.3498 52.2528L22.1418 52.1061L21.9319 51.9556L21.7209 51.8019L21.5087 51.6448L21.2957 51.4839L21.0811 51.3203L20.8663 51.1534L20.6497 50.9827L20.4331 50.8086L20.2147 50.6318L19.9956 50.4523L19.7765 50.2695L19.5556 50.084L19.334 49.8946L19.1124 49.703L18.8901 49.5087L18.6661 49.3117L18.4426 49.1119L18.2184 48.9093L17.993 48.7045L17.7675 48.4965L17.5414 48.2868L17.3153 48.0738L17.0885 47.8591L16.8622 47.6416L16.6347 47.422L16.4077 47.2007L16.18 46.9767L15.9523 46.7504L15.724 46.5225L15.4968 46.2923L15.2689 46.0605L15.041 45.8265L14.8135 45.5908L14.5855 45.3534L14.3585 45.1138L14.1314 44.8731L13.9043 44.6301L13.6777 44.3866L13.4516 44.1403L13.2255 43.8929L12.9999 43.6449L12.7753 43.3946L12.5507 43.1432L12.3272 42.8907L12.1037 42.6371L11.8812 42.3823L11.6592 42.1269L11.218 41.6121L10.9987 41.3528L10.7799 41.0928L10.5623 40.8328L10.3457 40.5717L10.1302 40.3093L9.91521 40.0464L9.70188 39.7829L9.48966 39.5194L9.27798 39.2552L8.85954 38.725L8.65225 38.4596L8.44661 38.1935L8.24207 37.9274L8.03921 37.6617L7.83743 37.3949L7.63732 37.1286L7.43889 36.8627L7.24211 36.5963L6.85354 36.0637L6.66233 35.798L6.47222 35.5324L6.28491 35.2672L6.09869 35.0019L5.91473 34.7376L5.73298 34.4733L5.55291 34.2094L5.37509 33.9465L5.19895 33.6841L5.0256 33.4222L4.85449 33.1612L4.68506 32.9007L4.51846 32.6418L4.35406 32.3828L4.19195 32.1259L4.03206 31.8689L3.87498 31.6134L3.7207 31.3584L3.56869 31.1055L3.41947 30.853L3.27254 30.6026L3.12839 30.3527L2.98706 30.1043L2.84909 29.8568L2.7134 29.6115L2.58053 29.3677L2.45102 29.1249L2.32433 28.8836L2.20049 28.645L2.08001 28.4074L1.96235 28.1712L1.84808 27.9372L1.73717 27.7041L1.62911 27.4736L1.52387 27.2447L1.42313 27.0178L1.32468 26.7931L1.23076 26.5714L1.18403 26.4592L1.09514 26.239L1.05184 26.13L1.00911 26.0214L0.968057 25.9134L0.927575 25.8059L0.887665 25.6989L0.848861 25.5919L0.811201 25.486L0.77411 25.3805L0.73759 25.2756L0.702749 25.1712L0.668478 25.0673L0.639553 24.9748L0.610054 24.8818L0.554349 24.6945L0.527569 24.5998L0.501359 24.5055L0.476224 24.4101L0.45166 24.3152L0.427059 24.2192L0.404676 24.1231L0.381722 24.0265L0.359873 23.9298L0.338561 23.8325L0.298154 23.6379L0.279023 23.5395L0.260465 23.4415L0.225491 23.2434L0.209112 23.1442L0.19327 23.0445L0.177998 22.9453L0.149601 22.7446L0.13651 22.6443L0.123957 22.5433L0.111939 22.4417L0.100491 22.3407L0.0797445 22.1364L0.0699413 22.0347L0.0612126 21.9319L0.0448622 21.7263L0.0317638 21.5183L0.0209488 21.3124L0.0122811 21.1041L0.00525753 20.8953L0.00152032 20.6852L0 20.475L0.000124882 20.2642L0.00299775 20.0527L0.00805319 19.84L0.0153255 19.6272L0.0242379 19.4138L0.0359065 19.1997L0.0486789 18.9855L0.0647419 18.7701L0.0824812 18.5552L0.102436 18.3402L0.124034 18.1245L0.147814 17.9076L0.173843 17.6918L0.201517 17.4753L0.230832 17.2582L0.2624 17.0421L0.296148 16.8248L0.331002 16.6075L0.368106 16.3911L0.406852 16.1742L0.447817 15.9571L0.490458 15.7405L0.534776 15.5244L0.580741 15.3077L0.628383 15.0915L0.677703 14.8757L0.729239 14.6598L0.781915 14.445L0.836237 14.2296L0.89227 14.0157L0.949949 13.8013L1.00877 13.5879L1.0698 13.3743L1.13198 13.1619L1.1953 12.9505L1.26083 12.739L1.32751 12.5286L1.39586 12.3186L1.46536 12.1097L1.53653 11.9013L1.60885 11.694L1.6823 11.4877L1.75744 11.2819L1.83429 11.0776L1.91171 10.8739L1.9908 10.6707L2.07108 10.4697L2.15246 10.2686L2.23555 10.0691L2.31925 9.8712L2.40463 9.67381L2.49119 9.47859L2.57888 9.28442L2.66715 9.09079L2.75659 8.89933L2.84775 8.70945L2.94004 8.52063L3.03348 8.33287L3.12699 8.14732L3.22218 7.96226L3.318 7.77994L3.41554 7.59922L3.51368 7.42012L3.61297 7.24209L3.71232 7.06628L3.81339 6.89205L3.91563 6.71999L4.01848 6.54957L4.12193 6.38078L4.22656 6.21416L4.33237 6.04971L4.43824 5.88748L4.54526 5.7263L4.65292 5.56787L4.76175 5.41161L4.87122 5.25809L4.98129 5.10621L5.09255 4.9565L5.20387 4.809L5.31637 4.66367L5.4295 4.52109L5.54382 4.38067L5.6582 4.24247L5.77379 4.10754L5.88945 3.97483L6.00629 3.84429L6.12376 3.71649L6.24188 3.59144L6.36063 3.46914L6.48003 3.34958L6.5995 3.23223L6.71963 3.11874L6.78165 3.06219L6.903 2.95197L6.96454 2.89822L7.02555 2.84504L7.08714 2.79238L7.14875 2.74084L7.21094 2.68983L7.27259 2.63939L7.3971 2.5418L7.45939 2.49411L7.52225 2.44695L7.64804 2.35484L7.77504 2.26601L7.83861 2.22382L7.90272 2.18104L7.96632 2.13995L8.0305 2.09939L8.09524 2.05936L8.15891 2.02048L8.22427 1.98209L8.35614 1.90747L8.40851 1.87964L8.4642 1.85165L8.5205 1.82531L8.57683 1.80008L8.63434 1.77701L8.69131 1.75452L8.74946 1.7342L8.80764 1.71498L8.86643 1.6974L8.92525 1.68094L8.98411 1.66558L9.04303 1.65243L9.1031 1.64034L9.1632 1.62937L9.22279 1.62008L9.28243 1.61189L9.34266 1.60535L9.40294 1.59991L9.46324 1.59558L9.52358 1.59236L9.58396 1.59025L9.64383 1.58982L9.70427 1.58992ZM9.61521 3.15388L9.58584 3.15463L9.52939 3.15823L9.50174 3.16056L9.44872 3.16734L9.42332 3.17069L9.37372 3.18064L9.34949 3.18615L9.32583 3.19219L9.30164 3.19881L9.25661 3.213L9.23413 3.22121L9.21276 3.22937L9.19085 3.2381L9.16951 3.24736L9.14875 3.25716L9.12801 3.26806L9.1051 3.28017L9.05823 3.30665L9.00865 3.33492L8.90955 3.39366L8.8595 3.42473L8.80891 3.45636L8.75946 3.48906L8.70891 3.52181L8.60794 3.59173L8.55692 3.62727L8.50593 3.66392L8.45551 3.7011L8.35367 3.77883L8.30168 3.81886L8.25083 3.85994L8.14806 3.94326L8.09617 3.9866L8.04485 4.03048L7.99357 4.07546L7.94174 4.12103L7.88939 4.16717L7.78749 4.26099L7.68245 4.3605L7.57912 4.46159L7.47532 4.56549L7.37105 4.67217L7.26799 4.78214L7.16446 4.89489L7.06047 5.01044L6.95765 5.12816L6.8544 5.24978L6.75176 5.37304L6.64921 5.49962L6.54674 5.62842L6.44491 5.75996L6.34314 5.89372L6.24201 6.03023L6.14153 6.16948L6.04111 6.31095L5.94076 6.45463L5.84159 6.60048L5.74248 6.74854L5.64456 6.89878L5.54669 7.05123L5.45001 7.20584L5.3534 7.36268L5.25796 7.52168L5.16255 7.68178L5.06836 7.84517L4.97474 8.00908L4.88175 8.17574L4.79048 8.34399L4.69871 8.51392L4.60865 8.68544L4.51919 8.8586L4.43034 9.0334L4.34267 9.21036L4.25613 9.38838L4.17021 9.56805L4.08542 9.74876L4.00181 9.93165L3.91878 10.1151L3.83745 10.3001L3.75673 10.4867L3.67715 10.6744L3.59872 10.8632L3.52142 11.053L3.44527 11.2439L3.37083 11.4363L3.29696 11.6293L3.22423 11.8234L3.15322 12.019L3.08331 12.2146L3.01454 12.4113L2.94692 12.609L2.88097 12.8072L2.81617 13.0065L2.75305 13.2062L2.6916 13.4064L2.63072 13.6072L2.5721 13.8089L2.51404 14.0112L2.4582 14.2134L2.40347 14.4155L2.35045 14.6192L2.29907 14.8223L2.24884 15.0265L2.20081 15.2306L2.1539 15.4346L2.10867 15.6391L2.06508 15.8429L2.02374 16.0478L1.98294 16.2521L1.94492 16.4568L1.90801 16.6615L1.87328 16.865L1.83969 17.0695L1.80885 17.2734L1.77912 17.4772L1.75104 17.6804L1.72517 17.8834L1.70094 18.0859L1.67893 18.2882L1.65857 18.49L1.63984 18.6911L1.62387 18.8915L1.60901 19.0919L1.59632 19.291L1.58582 19.489L1.577 19.6874L1.57089 19.8841L1.56589 20.0807L1.56361 20.2755L1.56354 20.4703L1.56455 20.6638L1.56884 20.8562L1.57421 21.0473L1.58233 21.2378L1.59266 21.4282L1.59833 21.5217L1.61188 21.7086L1.6192 21.8015L1.62708 21.8949L1.64499 22.0794L1.65449 22.1711L1.67569 22.3543L1.69904 22.5353L1.71125 22.6251L1.72457 22.715L1.75228 22.8935L1.76721 22.9816L1.78271 23.0703L1.79817 23.1578L1.81474 23.2453L1.84896 23.419L1.86714 23.5048L1.8859 23.5911L1.90572 23.6762L1.92498 23.7608L1.94534 23.8453L1.96681 23.9298L1.98825 24.0132L2.01022 24.096L2.0333 24.1787L2.05692 24.2609L2.07996 24.3425L2.10465 24.4235L2.13045 24.5045L2.15567 24.5849L2.18685 24.6784L2.21806 24.773L2.25152 24.8686L2.28444 24.9648L2.35478 25.1592L2.39167 25.258L2.42913 25.3573L2.46715 25.4572L2.50686 25.5575L2.5466 25.6589L2.58801 25.7608L2.63 25.8633L2.67256 25.9662L2.76168 26.1759L2.85361 26.3871L2.9484 26.6009L3.04769 26.8168L3.14983 27.0353L3.25593 27.2564L3.36432 27.4796L3.47664 27.7043L3.59181 27.9317L3.71037 28.1611L3.83232 28.3926L3.9571 28.6256L4.08469 28.8602L4.21514 29.0975L4.34894 29.3356L4.48557 29.5754L4.62447 29.8172L4.76731 30.0605L4.91186 30.3055L5.05919 30.5508L5.20992 30.7983L5.36178 31.0467L5.51758 31.2967L5.67563 31.5477L5.83535 31.7992L5.99846 32.0527L6.16325 32.3067L6.33083 32.5612L6.50012 32.8172L6.6722 33.0737L6.84595 33.3306L7.02196 33.5886L7.20021 33.8475L7.38068 34.1064L7.56229 34.3663L7.93273 34.8864L8.12048 35.1478L8.30988 35.4085L8.69481 35.9312L8.88978 36.1928L9.08586 36.4543L9.28415 36.7157L9.48355 36.9771L9.68405 37.2384L9.88678 37.4996L10.09 37.7603L10.295 38.0214L10.5015 38.2819L10.7092 38.5412L10.918 38.8005L11.1278 39.0597L11.3388 39.3178L11.5508 39.5758L11.7639 39.8327L11.9781 40.0884L12.1929 40.3436L12.4087 40.5986L12.6251 40.8521L12.8425 41.1043L13.061 41.3565L13.2794 41.6065L13.499 41.8564L13.7185 42.1041L13.9396 42.3512L14.1602 42.5967L14.3818 42.841L14.6039 43.0836L14.826 43.3251L15.048 43.5643L15.271 43.8025L15.4941 44.0395L15.717 44.2743L15.9399 44.5069L16.1634 44.7378L16.3867 44.9676L16.61 45.1951L16.8327 45.42L17.0559 45.6431L17.2784 45.8646L17.5015 46.0833L17.7239 46.3004L17.9457 46.5147L18.1674 46.7268L18.3885 46.9373L18.6095 47.1445L18.8293 47.3494L19.0491 47.5511L19.2682 47.7511L19.4867 47.9484L19.7039 48.1424L19.9212 48.3342L20.1371 48.5227L20.3525 48.7085L20.5666 48.8909L20.7802 49.0707L20.9924 49.2472L21.203 49.4209L21.4134 49.5914L21.6221 49.758L21.8301 49.9219L22.0364 50.082L22.2414 50.2388L22.4447 50.3929L22.6467 50.5427L22.8476 50.6891L23.0466 50.8318L23.2439 50.9706L23.4394 51.1057L23.6342 51.2369L23.8267 51.3648L23.9212 51.4267L24.0162 51.488L24.1101 51.5482L24.2046 51.6078L24.3911 51.7227L24.4833 51.7791L24.6663 51.8886L24.7567 51.9412L24.8476 51.9932L25.0259 52.0941L25.1145 52.1429L25.2019 52.1906L25.2893 52.2372L25.3761 52.2822L25.4612 52.3267L25.535 52.364L25.6087 52.4001L25.6825 52.4351L25.7573 52.4701L25.8327 52.5045L25.9855 52.5709L26.0631 52.603L26.2192 52.666L26.2983 52.6964L26.3785 52.7256L26.4581 52.7542L26.5388 52.7828L26.6201 52.8109L26.7025 52.8377L26.8682 52.8903L26.9522 52.9155L27.1211 52.9646L27.2067 52.988L27.2922 53.0103L27.3789 53.0325L27.466 53.0542L27.5532 53.0747L27.6414 53.0953L27.7296 53.1147L27.819 53.134L27.9082 53.1523L27.9981 53.1699L28.089 53.1875L28.1794 53.2046L28.2708 53.2206L28.3628 53.2359L28.4553 53.2507L28.5472 53.2649L28.7344 53.2922L28.9225 53.316L29.0171 53.3274L29.1129 53.3387L29.208 53.3484L29.3042 53.358L29.401 53.367L29.4972 53.3755L29.5945 53.384L29.8879 53.4043L29.9867 53.4099L30.085 53.415L30.1833 53.419L30.3843 53.4267L30.5841 53.4323L30.786 53.4356L30.989 53.4366L31.1925 53.436L31.3975 53.4324L31.6031 53.4272L31.8091 53.4204L32.0173 53.4112L32.2249 53.4003L32.4341 53.3866L32.6438 53.3724L32.854 53.3553L33.0647 53.3366L33.2759 53.3161L33.4876 53.294L33.6992 53.2697L33.9119 53.2442L34.124 53.2171L34.3371 53.1877L34.5502 53.1572L34.7632 53.1245L34.9762 53.0907L35.1891 53.0546L35.402 53.0175L35.6154 52.9786L35.8282 52.9382L36.0409 52.8966L36.2531 52.8534L36.4652 52.8091L36.6762 52.7637L36.8876 52.7166L37.0985 52.6679L37.3082 52.6181L37.5179 52.5672L37.727 52.5147L37.9349 52.4612L38.1423 52.4071L38.3491 52.3513L38.5547 52.2945L38.7592 52.2367L38.9636 52.1777L39.1658 52.1177L39.368 52.0566L39.5685 51.9951L39.7678 51.9325L39.966 51.8688L40.1631 51.804L40.3584 51.7388L40.5527 51.6725L40.7452 51.6058L40.9361 51.5385L41.1259 51.4702L41.3139 51.4015L41.4997 51.3317L41.685 51.2613L41.8674 51.1906L42.0488 51.1199L42.2273 51.0476L42.4047 50.9754L42.5799 50.9033L42.7534 50.8297L42.9242 50.7566L43.0927 50.6826L43.2595 50.6081L43.4236 50.5343L43.5854 50.4595L43.745 50.3847L43.9024 50.3101L44.0575 50.2345L44.2093 50.159L44.3584 50.0841L44.5057 50.0088L44.6498 49.9337L44.7911 49.8581L44.9296 49.7832L45.0648 49.7084L45.1972 49.6332L45.3269 49.5587L45.4532 49.4843L45.5768 49.4106L45.6965 49.3365L45.8134 49.2631L45.9265 49.1904L46.0369 49.1184L46.1428 49.0466L46.2459 48.9755L46.3452 48.9051L46.4406 48.8354L46.5328 48.767L46.6205 48.6987L46.7049 48.6318L46.785 48.5661L46.8611 48.5012L46.9324 48.4381L46.9997 48.3758L47.0633 48.3153L47.1235 48.2549L47.1493 48.2282L47.2014 48.1721L47.2491 48.1184L47.2699 48.0936L47.2876 48.0723L47.3041 48.0511L47.3349 48.0087L47.3498 47.9858L47.3635 47.9641L47.3778 47.9419L47.4041 47.8952L47.4161 47.8708L47.4286 47.847L47.4401 47.822L47.4618 47.7712L47.472 47.7441L47.4817 47.7176L47.4914 47.69L47.5 47.6624L47.5085 47.6337L47.5165 47.6045L47.5244 47.5742L47.5313 47.544L47.5386 47.5131L47.5448 47.4812L47.5505 47.4488L47.5606 47.3829L47.5651 47.3483L47.5685 47.3137L47.5718 47.2781L47.5746 47.2419L47.5768 47.2052L47.5784 47.168L47.58 47.1296L47.5804 47.0913L47.5798 47.0519L47.5797 47.012L47.579 46.9715L47.5766 46.9306L47.5747 46.8891L47.5688 46.8039L47.5641 46.7608L47.56 46.7172L47.5547 46.6725L47.5489 46.6272L47.5425 46.5826L47.5355 46.5363L47.528 46.4895L47.5205 46.4449L47.5019 46.3469L47.4812 46.2502L47.4587 46.1508L47.4334 46.0498L47.4058 45.9479L47.376 45.8438L47.3445 45.7381L47.3095 45.6315L47.2735 45.5227L47.234 45.4129L47.1934 45.3021L47.15 45.1897L47.1049 45.0769L47.057 44.9625L47.008 44.847L46.9567 44.7306L46.9032 44.6131L46.8479 44.4952L46.7905 44.3762L46.7313 44.2568L46.6705 44.1368L46.6079 44.0153L46.5432 43.8939L46.4767 43.772L46.4092 43.6491L46.3394 43.5262L46.269 43.4029L46.1959 43.2791L46.1216 43.1553L46.0462 43.0305L45.9692 42.9063L45.8905 42.7816L45.8106 42.657L45.7302 42.5318L45.6482 42.4073L45.5645 42.2823L45.4796 42.1573L45.3937 42.0324L45.3067 41.9087L45.2186 41.7839L45.1299 41.6596L44.9492 41.4124L44.7653 41.1665L44.6716 41.0441L44.5775 40.9223L44.4822 40.8006L44.387 40.68L44.2906 40.5594L44.097 40.3217L43.9006 40.0857L43.8022 39.9697L43.7026 39.8537L43.6032 39.7388L43.5037 39.625L43.3032 39.4003L43.1029 39.18L43.0019 39.0713L42.9016 38.9643L42.8007 38.8578L42.7004 38.7529L42.4994 38.5471L42.2997 38.3468L42.1996 38.2486L42.1007 38.1525L42.0018 38.0576L41.903 37.9637L41.7071 37.7821L41.5137 37.607L41.418 37.5225L41.3228 37.4396L41.2288 37.3589L41.1354 37.2798L41.0426 37.2023L40.951 37.1271L40.7702 36.983L40.6816 36.9148L40.5942 36.8477L40.5079 36.7838L40.4228 36.721L40.3389 36.6615L40.2567 36.6046L40.1763 36.5494L40.0964 36.4969L40.0195 36.447L39.9437 36.3993L39.8691 36.3549L39.7974 36.312L39.7274 36.273L39.6597 36.236L39.5944 36.2023L39.5313 36.1707L39.4705 36.1423L39.4233 36.1222L39.3992 36.1127L39.3756 36.1038L39.3526 36.0954L39.3291 36.0875L39.305 36.0803L39.258 36.0668L39.234 36.0607L39.2105 36.055L39.1865 36.05L39.162 36.0455L39.1141 36.0377L39.089 36.0349L39.0645 36.0315L39.0401 36.0293L39.0145 36.0271L38.9379 36.0238L38.9112 36.0239L38.8857 36.0239L38.8586 36.0245L38.832 36.0257L38.8049 36.0275L38.7496 36.0321L38.7214 36.035L38.6927 36.0385L38.6645 36.0425L38.6353 36.0466L38.6088 36.0511L38.5459 36.0628L38.4853 36.0754L38.4231 36.0909L38.3594 36.1082L38.2951 36.1271L38.2297 36.1483L38.1628 36.1712L38.0948 36.1964L38.0258 36.2228L37.9551 36.252L37.8845 36.2823L37.8124 36.3154L37.7397 36.3503L37.666 36.3863L37.5912 36.4245L37.5159 36.4645L37.439 36.5061L37.3627 36.5494L37.2848 36.5945L37.2059 36.6407L37.1275 36.6885L37.0475 36.7381L36.967 36.7894L36.8866 36.8418L36.8051 36.8953L36.7225 36.95L36.6405 37.0063L36.5574 37.0638L36.4739 37.1219L36.3898 37.1816L36.3062 37.2419L36.1354 37.3665L35.9641 37.4939L35.7913 37.6241L35.6163 37.7578L35.4403 37.8926L35.2632 38.0297L34.9053 38.3079L34.543 38.5886L34.3605 38.7281L34.1763 38.8672L33.9915 39.0057L33.8055 39.1421L33.6195 39.2763L33.5245 39.3432L33.4306 39.4089L33.3362 39.4741L33.2411 39.5388L33.1461 39.6023L33.0504 39.6653L32.9548 39.7273L32.859 39.7881L32.7628 39.8484L32.6665 39.9076L32.5695 39.9651L32.472 40.0221L32.3745 40.0769L32.2764 40.1312L32.1776 40.1838L32.0789 40.2353L31.9795 40.2852L31.8801 40.334L31.7795 40.3806L31.6789 40.4261L31.5771 40.4694L31.4758 40.5111L31.3733 40.5505L31.2702 40.5884L31.1666 40.6246L31.0622 40.658L30.9579 40.6893L30.8529 40.7189L30.7467 40.7452L30.6399 40.7699L30.5329 40.7913L30.4276 40.8098L30.3713 40.819L30.262 40.8338L30.2073 40.8401L30.1531 40.8458L30.0978 40.8505L30.0431 40.8545L29.9883 40.8575L29.9329 40.86L29.8221 40.8626L29.7111 40.8609L29.6551 40.8595L29.5995 40.8564L29.5434 40.8528L29.4878 40.8486L29.4316 40.8427L29.376 40.8363L29.3198 40.8294L29.2641 40.8207L29.2078 40.8116L29.1514 40.8013L29.0957 40.7904L29.0404 40.7779L28.9845 40.7648L28.9286 40.7507L28.8727 40.7354L28.8173 40.7195L28.7619 40.7026L28.707 40.6839L28.6515 40.6647L28.5965 40.645L28.4865 40.601L28.4325 40.5779L28.3207 40.5279L28.207 40.4752L28.0933 40.4203L27.9784 40.3622L27.8629 40.3024L27.7456 40.2399L27.6282 40.1751L27.5097 40.1072L27.3894 40.0376L27.2691 39.9658L27.1476 39.8918L27.0249 39.8146L26.901 39.7363L26.7765 39.6552L26.6514 39.5726L26.5251 39.4877L26.3982 39.4001L26.2696 39.3109L26.1409 39.2195L26.0104 39.1266L25.88 39.0313L25.7489 38.9345L25.6166 38.8355L25.4837 38.7349L25.3508 38.632L25.2161 38.5275L25.0809 38.4215L24.8091 38.2038L24.5355 37.9801L24.3977 37.8653L24.1204 37.6317L23.8419 37.3927L23.7017 37.2702L23.4206 37.0225L23.2803 36.8966L22.9974 36.6406L22.7143 36.3802L22.4305 36.1148L22.1471 35.8455L22.0048 35.7092L21.7212 35.4332L21.5794 35.2942L21.4375 35.154L21.2962 35.0132L21.1549 34.8713L21.014 34.7289L20.7329 34.4423L20.5925 34.297L20.3135 34.0059L20.1742 33.8595L19.8984 33.5649L19.6236 33.2691L19.4876 33.1203L19.2166 32.8216L18.9489 32.5217L18.8156 32.3711L18.6834 32.2205L18.5523 32.0699L18.2923 31.7685L18.0362 31.4664L17.9096 31.3155L17.784 31.1646L17.5357 30.8632L17.4134 30.7122L17.2924 30.5622L17.1718 30.4116L17.0529 30.2616L16.8191 29.9629L16.7041 29.8132L16.5903 29.6645L16.4781 29.5164L16.3671 29.3682L16.2571 29.221L16.1494 29.0738L16.0429 28.9276L15.938 28.7819L15.8348 28.6366L15.7327 28.4914L15.6323 28.3477L15.5342 28.2039L15.4377 28.0617L15.3424 27.9194L15.2487 27.7788L15.1573 27.638L15.0676 27.4989L14.9801 27.3596L14.8938 27.2214L14.8097 27.0853L14.7273 26.9486L14.6477 26.8134L14.5693 26.6793L14.493 26.5462L14.4191 26.4141L14.3468 26.2825L14.2773 26.1524L14.2096 26.0228L14.1446 25.8947L14.0813 25.7672L14.0203 25.6417L13.9621 25.5167L13.9056 25.3921L13.8519 25.2691L13.7999 25.1477L13.7512 25.0273L13.7048 24.9067L13.6606 24.7883L13.6193 24.6703L13.5807 24.5538L13.5629 24.4964L13.5455 24.4383L13.5299 24.3808L13.5148 24.3226L13.5014 24.265L13.4885 24.2067L13.4767 24.1484L13.4655 24.0907L13.4475 23.975L13.4401 23.9165L13.4339 23.8591L13.4282 23.8011L13.4231 23.7436L13.4173 23.6285L13.4155 23.5708L13.4153 23.4566L13.4169 23.3999L13.419 23.3427L13.4266 23.2292L13.4315 23.1735L13.4375 23.1166L13.4441 23.0614L13.4518 23.005L13.4694 22.8944L13.4904 22.7847L13.502 22.7299L13.5148 22.676L13.5281 22.6216L13.5419 22.5678L13.5569 22.5139L13.5719 22.461L13.5885 22.4076L13.6052 22.3553L13.6235 22.3001L13.6597 22.1981L13.6992 22.0948L13.7409 21.9926L13.7855 21.8907L13.8317 21.7905L13.8807 21.6907L13.9309 21.5919L13.9833 21.4942L14.0385 21.3969L14.0949 21.3006L14.1524 21.2055L14.2127 21.1107L14.2735 21.0165L14.3366 20.9233L14.4014 20.8305L14.4667 20.7383L14.5343 20.6471L14.6025 20.5564L14.6718 20.4657L14.8148 20.2863L14.9618 20.1095L15.0373 20.0213L15.1128 19.9342L15.1894 19.847L15.3459 19.6737L15.4247 19.5875L15.5847 19.4174L15.6663 19.3316L15.8286 19.1636L15.9931 18.9954L16.1592 18.8289L16.3255 18.6634L16.4922 18.4985L17.1542 17.849L17.3166 17.6887L17.4759 17.5297L17.6328 17.3707L17.7871 17.2135L17.9386 17.056L18.0116 16.9784L18.1554 16.8234L18.2262 16.7459L18.2954 16.669L18.3634 16.5923L18.4298 16.5161L18.4951 16.44L18.5587 16.3645L18.6213 16.289L18.6822 16.2142L18.7414 16.1389L18.7984 16.0649L18.8544 15.9908L18.9086 15.9174L18.9613 15.8446L19.0117 15.7719L19.0605 15.6999L19.1065 15.6285L19.152 15.5577L19.1942 15.487L19.2353 15.4175L19.2742 15.3481L19.3109 15.28L19.3454 15.2119L19.3777 15.145L19.4072 15.0787L19.4357 15.0137L19.4614 14.9482L19.4855 14.8844L19.5079 14.8191L19.5265 14.7589L19.5355 14.7286L19.544 14.6977L19.552 14.6674L19.5593 14.6365L19.5661 14.6063L19.5724 14.5766L19.5782 14.5475L19.5885 14.4882L19.5926 14.4586L19.5967 14.4302L19.5997 14.4017L19.6046 14.3438L19.6065 14.3154L19.6078 14.2876L19.6086 14.2593L19.6088 14.2305L19.6091 14.2027L19.6082 14.175L19.6054 14.1186L19.6028 14.0904L19.5998 14.0628L19.5972 14.0346L19.593 14.007L19.5888 13.9784L19.5841 13.9503L19.5788 13.9228L19.5729 13.8936L19.5659 13.8657L19.5595 13.8371L19.5401 13.7664L19.519 13.6919L19.4955 13.6152L19.4692 13.536L19.4406 13.4534L19.4103 13.3694L19.3776 13.282L19.3422 13.1932L19.3049 13.1016L19.2654 13.0079L19.2237 12.9121L19.1796 12.8142L19.1344 12.7153L19.0858 12.6142L19.036 12.511L18.984 12.4068L18.9302 12.301L18.8742 12.1931L18.8165 12.0847L18.7571 11.9747L18.696 11.8631L18.6326 11.7505L18.5675 11.6363L18.5008 11.5216L18.4323 11.4054L18.3627 11.2881L18.2178 11.0515L18.1426 10.9322L18.0668 10.8113L17.9887 10.6905L17.9095 10.5686L17.8287 10.4462L17.7472 10.3233L17.6641 10.2L17.5793 10.0761L17.4928 9.9518L17.4058 9.82693L17.3177 9.70212L17.2278 9.57683L17.1369 9.45159L16.9522 9.20067L16.7631 8.94995L16.6672 8.82437L16.5702 8.69884L16.472 8.57336L16.3733 8.44846L16.1727 8.19991L16.0718 8.07622L15.9698 7.95257L15.8667 7.82897L15.7637 7.70648L15.5549 7.46329L15.3433 7.22188L15.2371 7.10286L15.1303 6.98442L15.0229 6.86656L14.9151 6.75038L14.8067 6.63479L14.6983 6.5203L14.5895 6.40639L14.4812 6.29412L14.3713 6.18247L14.2619 6.07247L14.0429 5.85635L13.8229 5.64583L13.7126 5.54252L13.603 5.44085L13.4929 5.34086L13.3828 5.24198L13.2739 5.14527L13.164 5.04972L13.0546 4.95691L12.9453 4.86521L12.8372 4.77568L12.7286 4.68783L12.6211 4.60215L12.5131 4.51816L12.4058 4.43691L12.2991 4.3573L12.1936 4.27986L12.0881 4.20463L11.9838 4.13157L11.8796 4.06073L11.7766 3.99316L11.6742 3.92723L11.5724 3.86404L11.4718 3.80303L11.373 3.74471L11.2742 3.6886L11.1766 3.63577L11.0808 3.58564L10.9862 3.53767L10.8927 3.49298L10.8005 3.45046L10.71 3.41174L10.619 3.3736L10.5775 3.35768L10.5337 3.34075L10.4911 3.32488L10.4059 3.29536L10.3644 3.28166L10.323 3.26907L10.2827 3.25642L10.2424 3.24489L10.2033 3.23441L10.1636 3.22452L10.125 3.21457L10.087 3.20626L10.0123 3.1907L9.97601 3.18399L9.94033 3.17779L9.90526 3.17324L9.87072 3.16811L9.83621 3.16409L9.80339 3.16055L9.7706 3.15811L9.73838 3.15621L9.70673 3.15483L9.67565 3.15399L9.64514 3.15367L9.61521 3.15388Z" fill="white" fill-opacity="0.5"/>
<path fill-rule="evenodd" clip-rule="evenodd" d="M55.7313 0L55.8587 0.00312662L55.9845 0.00937986L56.0471 0.0140705L56.1722 0.0250144L56.2347 0.0320504L56.2965 0.039085L56.3582 0.0476835L56.42 0.0570649L56.4809 0.0664447L56.6029 0.0883326L56.6631 0.100059L56.7835 0.126638L56.8436 0.140708L56.9031 0.15556L56.9617 0.171195L57.0211 0.187611L57.0789 0.204808L57.1376 0.222006L57.1954 0.240768L57.2533 0.26031L57.3103 0.279853L57.3674 0.300178L57.4245 0.321283L57.4807 0.343171L57.537 0.365841L57.648 0.412743L57.7027 0.436977L57.7575 0.461991L57.8114 0.487788L57.8653 0.514365L57.9193 0.541727L57.9724 0.569086L58.0248 0.597227L58.0772 0.626151L58.1804 0.685561L58.232 0.716829L58.2828 0.748098L58.3328 0.779366L58.3828 0.812198L58.4321 0.845029L58.4813 0.878644L58.5783 0.947434L58.6259 0.982611L58.6736 1.01857L58.7205 1.05531L58.7667 1.09205L58.8128 1.12957L58.9035 1.20618L58.948 1.24527L59.0356 1.325L59.0786 1.36565L59.1216 1.40708L59.1638 1.44851L59.2052 1.49072L59.2466 1.53372L59.2873 1.57671L59.367 1.66426L59.4061 1.70882L59.4827 1.7995L59.5202 1.84562L59.557 1.89174L59.5937 1.93864L59.6289 1.98633L59.6648 2.03401L59.6992 2.0817L59.7336 2.13094L59.7673 2.18019L59.8001 2.22944L59.8329 2.27947L59.8642 2.3295L59.8954 2.38031L59.9267 2.4319L59.9861 2.53509L60.015 2.58746L60.0432 2.64062L60.0705 2.693L60.0979 2.74693L60.1245 2.80087L60.1503 2.85481L60.1753 2.90953L60.1995 2.96425L60.2464 3.07525L60.2691 3.13154L60.291 3.18782L60.3121 3.24488L60.3324 3.30195L60.352 3.35901L60.3715 3.41686L60.3903 3.47471L60.4075 3.53255L60.4247 3.59118L60.4411 3.65059L60.4567 3.70922L60.4716 3.76863L60.4856 3.82882L60.5122 3.94921L60.5239 4.0094L60.5458 4.13134L60.5552 4.19232L60.5646 4.25407L60.5802 4.37758L60.5873 4.44012L60.5982 4.56519L60.606 4.69105L60.6091 4.75359L60.6123 4.88101V13.3337L60.6091 13.4611L60.606 13.5236L60.5982 13.6495L60.5873 13.7745L60.5802 13.8371L60.5646 13.9606L60.5552 14.0223L60.5458 14.0833L60.5239 14.2053L60.5122 14.2654L60.4856 14.3858L60.4716 14.4452L60.4567 14.5047L60.4411 14.5641L60.4247 14.6227L60.3903 14.74L60.3715 14.7978L60.352 14.8556L60.3324 14.9127L60.3121 14.9698L60.291 15.0268L60.2691 15.0831L60.2464 15.1386L60.223 15.1949L60.1995 15.2496L60.1753 15.3051L60.1503 15.3598L60.1245 15.4138L60.0979 15.4677L60.0432 15.574L60.015 15.6272L59.9861 15.6796L59.9267 15.7828L59.8954 15.8343L59.8642 15.8852L59.8329 15.9352L59.8001 15.9852L59.7673 16.0345L59.7336 16.0837L59.6648 16.1806L59.6289 16.2283L59.5937 16.276L59.557 16.3229L59.5202 16.369L59.4827 16.4152L59.4061 16.5058L59.367 16.5504L59.2873 16.6379L59.2466 16.6809L59.2052 16.7239L59.1638 16.7661L59.1216 16.8076L59.0786 16.849L59.0356 16.8897L58.948 16.9694L58.9035 17.0085L58.8128 17.0851L58.7667 17.1226L58.7205 17.1593L58.6736 17.1961L58.6259 17.2313L58.5783 17.2672L58.4813 17.336L58.4321 17.3696L58.3828 17.4025L58.3328 17.4353L58.2828 17.4666L58.232 17.4978L58.1804 17.5291L58.0772 17.5885L58.0248 17.6174L57.9724 17.6456L57.9193 17.6729L57.8653 17.7003L57.7575 17.7519L57.7027 17.7777L57.648 17.8019L57.537 17.8488L57.4807 17.8715L57.4245 17.8934L57.3674 17.9145L57.3103 17.9348L57.2533 17.9543L57.1954 17.9739L57.1376 17.9919L57.0789 18.0098L57.0211 18.027L56.9617 18.0435L56.9031 18.0591L56.8429 18.0739L56.7835 18.088L56.6631 18.1146L56.6029 18.1263L56.4809 18.1482L56.42 18.1576L56.3582 18.167L56.2347 18.1826L56.1722 18.1896L56.0471 18.2006L55.9212 18.2084L55.8587 18.2115L55.7313 18.2147L40.7865 18.2272L40.6927 18.2217L40.5997 18.2045L40.5098 18.1764L40.423 18.138L40.3425 18.0888L40.2682 18.031L40.201 17.9645L40.1432 17.8902L40.0939 17.8089L40.0556 17.723L40.0275 17.6331L40.0103 17.54L40.004 17.4462L40.0103 17.3516L40.0267 17.2586L40.0548 17.1687L40.0939 17.0827L40.1424 17.0014L40.2002 16.9272L40.2675 16.8607L40.3417 16.8021L40.4222 16.7536L40.5082 16.7146L40.5981 16.6864L40.6911 16.6692L40.7857 16.6637L55.7117 16.6512L55.7555 16.6505L55.8423 16.6473L55.8853 16.6442L55.9283 16.6419L56.0143 16.634L56.0565 16.6293L56.0995 16.6239L56.1409 16.6184L56.2253 16.6059L56.2667 16.5989L56.3082 16.591L56.3496 16.5824L56.3903 16.5738L56.4317 16.5645L56.4723 16.5551L56.513 16.5449L56.5528 16.534L56.5935 16.523L56.6732 16.4996L56.7123 16.4871L56.7905 16.4605L56.8296 16.4464L56.8687 16.4316L56.9453 16.4019L56.9828 16.3855L57.0203 16.3698L57.1329 16.3182L57.1696 16.3002L57.2056 16.2815L57.2423 16.2627L57.3142 16.2236L57.3846 16.183L57.4198 16.1619L57.4542 16.1408L57.523 16.097L57.5574 16.0743L57.591 16.0509L57.6566 16.004L57.6895 15.9797L57.7223 15.9547L57.7543 15.9305L57.7864 15.9047L57.8489 15.8531L57.9099 15.7999L57.9404 15.7726L57.9701 15.7452L58.0295 15.6889L58.0584 15.6608L58.0866 15.6319L58.1429 15.5725L58.1702 15.5428L58.1976 15.5123L58.2507 15.4513L58.3023 15.3888L58.3281 15.3567L58.3531 15.3247L58.4016 15.259L58.425 15.2262L58.472 15.1589L58.4946 15.1253L58.5384 15.0565L58.5595 15.0221L58.6017 14.9518L58.6213 14.9166L58.6416 14.8807L58.6603 14.8447L58.6979 14.7712L58.7338 14.6977L58.7502 14.6602L58.7674 14.6227L58.7839 14.5852L58.7995 14.5469L58.8143 14.5093L58.8292 14.4703L58.8441 14.432L58.8581 14.3929L58.8847 14.3147L58.8972 14.2748L58.9089 14.2357L58.9207 14.1959L58.9316 14.1552L58.9425 14.1154L58.9527 14.0747L58.9621 14.0341L58.9715 13.9926L58.9801 13.952L58.9887 13.9106L58.9965 13.8691L59.0035 13.8277L59.016 13.7433L59.027 13.6588L59.0317 13.6166L59.0395 13.5306L59.0418 13.4876L59.0449 13.4447L59.0481 13.3579L59.0489 13.3141V4.90055L59.0481 4.85677L59.0449 4.77L59.0418 4.72701L59.0395 4.68401L59.0317 4.59803L59.027 4.55581L59.0215 4.51282L59.016 4.47061L59.0098 4.42918L59.0035 4.38696L58.9965 4.34553L58.9887 4.3041L58.9801 4.26267L58.9715 4.22202L58.9621 4.18059L58.9527 4.13994L58.9425 4.09929L58.9316 4.05943L58.9207 4.01878L58.8972 3.93904L58.8847 3.89996L58.8581 3.82179L58.8441 3.7827L58.8292 3.74362L58.7995 3.66701L58.7839 3.62949L58.7674 3.59196L58.7502 3.55444L58.7338 3.51692L58.7158 3.4794L58.6979 3.44266L58.6791 3.4067L58.6603 3.36996L58.6416 3.334L58.6213 3.29804L58.5806 3.22769L58.5595 3.19251L58.5384 3.15811L58.4946 3.08932L58.472 3.05493L58.4485 3.02131L58.4016 2.95565L58.3531 2.88999L58.3281 2.85794L58.3023 2.82589L58.2507 2.76335L58.1976 2.70238L58.1702 2.67189L58.1429 2.64218L58.0866 2.58277L58.0584 2.55385L58.0295 2.52571L57.9701 2.46943L57.9404 2.44207L57.9099 2.41471L57.8489 2.36155L57.7864 2.30996L57.7543 2.28416L57.7223 2.25915L57.6566 2.21068L57.591 2.16378L57.5574 2.14032L57.523 2.11766L57.4542 2.07388L57.4198 2.05277L57.3494 2.01056L57.3142 1.99102L57.2783 1.97069L57.2423 1.95193L57.2056 1.93317L57.1696 1.91441L57.1321 1.89643L57.0954 1.87845L57.0578 1.86204L57.0203 1.84484L56.9828 1.82842L56.9453 1.81279L56.907 1.79794L56.8687 1.7823L56.7905 1.75416L56.7123 1.72758L56.6732 1.71507L56.5935 1.69162L56.5528 1.68068L56.513 1.66974L56.4317 1.64941L56.3903 1.64081L56.3496 1.63221L56.3082 1.62361L56.2667 1.6158L56.2253 1.60876L56.1409 1.59625L56.0995 1.59078L56.0565 1.58531L56.0143 1.58062L55.9283 1.5728L55.8853 1.57046L55.8423 1.56733L55.7555 1.5642L55.7117 1.56342H34.7595L34.7157 1.5642L34.629 1.56733L34.586 1.57046L34.543 1.5728L34.457 1.58062L34.4148 1.58531L34.3304 1.59625L34.2459 1.60876L34.2045 1.6158L34.1631 1.62361L34.1216 1.63221L34.081 1.64081L34.0396 1.64941L33.9583 1.66974L33.9184 1.68068L33.8777 1.69162L33.8379 1.70335L33.7988 1.71507L33.7589 1.72758L33.6808 1.75416L33.6417 1.76823L33.6034 1.7823L33.5643 1.79794L33.526 1.81279L33.4885 1.82842L33.4509 1.84484L33.4134 1.86204L33.3759 1.87845L33.3391 1.89643L33.3016 1.91441L33.2657 1.93317L33.2289 1.95193L33.193 1.97069L33.157 1.99102L33.1218 2.01056L33.0515 2.05277L33.0171 2.07388L32.9483 2.11766L32.9139 2.14032L32.8803 2.16378L32.8146 2.21068L32.749 2.25915L32.7169 2.28416L32.6849 2.30996L32.6223 2.36155L32.5613 2.41471L32.5309 2.44207L32.5012 2.46943L32.4417 2.52571L32.4128 2.55385L32.3847 2.58277L32.3284 2.64218L32.301 2.67189L32.2737 2.70238L32.2205 2.76335L32.1689 2.82589L32.1431 2.85794L32.1181 2.88999L32.0696 2.95565L32.0227 3.02131L31.9993 3.05493L31.9766 3.08932L31.9547 3.12294L31.9328 3.15811L31.9117 3.19251L31.8906 3.22769L31.85 3.29804L31.8109 3.36996L31.7921 3.4067L31.7734 3.44266L31.7554 3.4794L31.7038 3.59196L31.6874 3.62949L31.6718 3.66701L31.6421 3.74362L31.6272 3.7827L31.6131 3.82179L31.5866 3.89996L31.574 3.93904L31.5506 4.01878L31.5396 4.05943L31.5287 4.09929L31.5185 4.13994L31.5092 4.18059L31.4998 4.22202L31.4912 4.26267L31.4826 4.3041L31.4748 4.34553L31.4677 4.38696L31.4615 4.42918L31.4552 4.47061L31.4498 4.51282L31.4443 4.55581L31.4396 4.59803L31.4318 4.68401L31.4294 4.72701L31.4263 4.77L31.4232 4.85677L31.4224 4.90055V13.3149L31.4232 13.3594L31.4263 13.4478L31.4286 13.4916L31.4318 13.5361L31.4349 13.5791L31.4388 13.6229L31.4427 13.6659L31.4474 13.7097L31.4529 13.7519L31.4583 13.7949L31.4646 13.8379L31.4787 13.9223L31.4865 13.9637L31.4943 14.0059L31.5029 14.0474L31.5123 14.088L31.5217 14.1294L31.542 14.2107L31.5529 14.2514L31.5647 14.2912L31.5764 14.3319L31.5881 14.371L31.6014 14.4108L31.6139 14.4499L31.628 14.489L31.6413 14.5281L31.6858 14.643L31.7015 14.6805L31.7343 14.7556L31.7507 14.7923L31.7679 14.8291L31.7859 14.865L31.8039 14.9018L31.8226 14.9377L31.8601 15.0081L31.8805 15.0433L31.9 15.0784L31.9203 15.1128L31.9414 15.1464L31.9626 15.1808L31.9837 15.2137L32.0055 15.2473L32.0509 15.3129L32.0736 15.345L32.1205 15.4091L32.1447 15.4404L32.1689 15.4708L32.219 15.5318L32.2448 15.5623L32.2705 15.592L32.2963 15.6209L32.3495 15.6788L32.4042 15.7351L32.4316 15.7624L32.4597 15.7898L32.4879 15.8164L32.5168 15.8429L32.5457 15.8687L32.5754 15.8945L32.6043 15.9203L32.6348 15.9453L32.6645 15.9696L32.695 15.9938L32.7263 16.018L32.7568 16.0415L32.7888 16.0642L32.8201 16.0868L32.8521 16.1095L32.8842 16.1314L32.9499 16.1736L32.9827 16.1939L33.0499 16.2346L33.0835 16.2541L33.1523 16.2916L33.1867 16.3096L33.2219 16.3276L33.2571 16.3448L33.2922 16.3612L33.3642 16.394L33.4001 16.4097L33.4736 16.4394L33.5103 16.4535L33.5479 16.4675L33.5854 16.4808L33.6229 16.4933L33.6995 16.5183L33.7378 16.5293L33.816 16.5512L33.8551 16.5613L33.8942 16.5707L33.934 16.5801L33.9739 16.5887L34.0145 16.5965L34.0544 16.6043L34.0951 16.6114L34.1365 16.6176L34.1771 16.6239L34.2186 16.6293L34.2608 16.6348L34.3022 16.6395L34.3444 16.6434L34.3866 16.6465L34.4296 16.6497L34.5156 16.6544L34.5586 16.6559L34.6024 16.6567H34.6509L34.7454 16.663L34.8377 16.6809L34.9276 16.7091L35.0136 16.7489L35.0941 16.7982L35.1684 16.8568L35.2348 16.924L35.2919 16.9983L35.3403 17.0796L35.3786 17.1656L35.406 17.2563L35.4224 17.3493L35.4279 17.4431L35.4216 17.5377L35.4036 17.6307L35.3755 17.7206L35.3356 17.8058L35.2864 17.8863L35.2278 17.9606L35.1605 18.027L35.0863 18.0849L35.005 18.1326L34.919 18.1709L34.8283 18.1982L34.7353 18.2154L34.6415 18.2201H34.5821L34.5187 18.2186L34.3929 18.2139L34.267 18.2061L34.2045 18.2006L34.1427 18.1943L34.0802 18.1881L34.0192 18.1803L33.9575 18.1717L33.8965 18.1631L33.8355 18.1529L33.7746 18.142L33.7144 18.131L33.655 18.1185L33.5948 18.106L33.5354 18.0927L33.4759 18.0779L33.4173 18.063L33.3587 18.0474L33.243 18.013L33.1852 17.995L33.1281 17.977L33.071 17.9575L33.0147 17.9371L32.9585 17.916L32.903 17.8949L32.8475 17.873L32.7927 17.8504L32.738 17.8261L32.6833 17.8027L32.6294 17.7777L32.523 17.7261L32.4699 17.6995L32.4175 17.6721L32.3659 17.644L32.3143 17.6151L32.2635 17.5862L32.2127 17.5557L32.1627 17.5252L32.1126 17.4939L32.0634 17.4626L32.0141 17.4298L31.9657 17.397L31.918 17.3642L31.8703 17.3298L31.8234 17.2954L31.7765 17.2602L31.7304 17.2242L31.6843 17.1875L31.6397 17.1507L31.5944 17.1132L31.5506 17.0757L31.5068 17.0374L31.463 16.9983L31.42 16.9584L31.3778 16.9186L31.3364 16.8779L31.295 16.8365L31.2543 16.7951L31.2137 16.7529L31.1738 16.7106L31.1347 16.6677L31.0581 16.5801L31.0198 16.5355L30.9831 16.491L30.9463 16.4449L30.9104 16.3995L30.8752 16.3534L30.84 16.3065L30.8056 16.2596L30.7712 16.2119L30.7056 16.115L30.6735 16.0665L30.6415 16.0173L30.5805 15.9172L30.55 15.8664L30.4922 15.7648L30.464 15.7132L30.4093 15.6084L30.3835 15.5561L30.3577 15.5029L30.3327 15.449L30.3077 15.3958L30.2842 15.3411L30.2608 15.2871L30.2381 15.2316L30.2154 15.1769L30.1732 15.0659L30.1341 14.9534L30.1146 14.8963L30.0966 14.8392L30.0794 14.7822L30.0622 14.7243L30.0458 14.6665L30.0302 14.6086L30.0005 14.4914L29.9872 14.4327L29.9739 14.3733L29.9622 14.3139L29.9504 14.2537L29.9395 14.1943L29.9293 14.1341L29.9192 14.0731L29.9106 14.013L29.902 13.952L29.8879 13.83L29.8816 13.7683L29.8762 13.7065L29.8715 13.6448L29.8676 13.583L29.8644 13.5205L29.8621 13.4579L29.859 13.3329V4.88101L29.8621 4.75359L29.8652 4.69105L29.873 4.56519L29.884 4.44012L29.891 4.37758L29.9067 4.25407L29.916 4.19232L29.9254 4.13134L29.9473 4.0094L29.959 3.94921L29.9856 3.82882L29.9997 3.76863L30.0145 3.70922L30.0302 3.65059L30.0466 3.59118L30.0638 3.53255L30.0997 3.41686L30.1193 3.35901L30.1388 3.30195L30.1591 3.24488L30.1803 3.18782L30.2021 3.13154L30.2248 3.07525L30.2717 2.96425L30.2959 2.90953L30.3217 2.85481L30.3468 2.80087L30.3733 2.74693L30.4007 2.693L30.4281 2.63984L30.4562 2.58746L30.4851 2.53509L30.5445 2.4319L30.5758 2.38031L30.6071 2.3295L30.6383 2.27947L30.6712 2.22944L30.704 2.18019L30.7376 2.13094L30.772 2.0817L30.8064 2.03401L30.8424 1.98633L30.8775 1.93864L30.9143 1.89174L30.951 1.84562L30.9885 1.7995L31.0652 1.70882L31.1042 1.66426L31.184 1.57671L31.2246 1.53372L31.2661 1.49072L31.3075 1.44851L31.3497 1.40708L31.3927 1.36565L31.4357 1.325L31.5232 1.24527L31.5678 1.20618L31.6585 1.12957L31.7046 1.09205L31.7507 1.05531L31.7976 1.01857L31.8453 0.982611L31.893 0.947434L31.9899 0.878644L32.0392 0.845029L32.0884 0.812198L32.1384 0.779366L32.1885 0.748098L32.2393 0.716829L32.2909 0.685561L32.3941 0.626151L32.4464 0.597227L32.4996 0.569086L32.6059 0.514365L32.6598 0.487788L32.7138 0.461991L32.7685 0.436977L32.824 0.412743L32.8787 0.389292L32.935 0.365841L32.9905 0.343171L33.0468 0.321283L33.1039 0.300178L33.1609 0.279853L33.218 0.26031L33.2758 0.240768L33.3337 0.222006L33.4509 0.187611L33.5096 0.171195L33.5682 0.15556L33.6284 0.140708L33.6878 0.126638L33.8082 0.100059L33.8684 0.0883326L33.9903 0.0664447L34.0513 0.0570649L34.113 0.0476835L34.1748 0.039085L34.2366 0.0320504L34.2991 0.0250144L34.4242 0.0140705L34.4867 0.00937986L34.6126 0.00312662L34.74 0H55.7313Z" fill="white" fill-opacity="0.5"/>
<path fill-rule="evenodd" clip-rule="evenodd" d="M34.8 16.6639L34.843 16.667L34.8852 16.6725L34.9274 16.6803L34.9696 16.6904L35.0111 16.703L35.0517 16.7178L35.0908 16.735L35.1299 16.7538L35.1674 16.7749L35.2034 16.7983L35.2385 16.8233L35.2721 16.8499L35.3042 16.8788L35.3347 16.9093L35.3628 16.9422L35.3902 16.9758L35.4144 17.0109L35.4379 17.0469L35.459 17.0852L35.4777 17.1235L35.4942 17.1634L35.5082 17.204L35.5207 17.2455L35.5301 17.2869L35.5379 17.3299L35.5434 17.3721L35.5457 17.4151L35.5465 17.4581L35.4973 20.3684L40.2649 16.8179L40.3009 16.7936L40.3369 16.771L40.3752 16.7499L40.4135 16.7311L40.4533 16.7147L40.494 16.7006L40.5354 16.6889L40.5776 16.6787L40.6198 16.6717L40.6628 16.6662L40.7058 16.6639H40.7488L40.7918 16.6654L40.8348 16.6701L40.877 16.6772L40.9192 16.6865L40.9607 16.6975L41.0021 16.7116L41.042 16.7272L41.081 16.7452L41.1186 16.7655L41.1553 16.7882L41.1913 16.8124L41.2257 16.839L41.2577 16.8671L41.289 16.8968L41.3187 16.9281L41.346 16.9609L41.3718 16.9961L41.3953 17.0313L41.4172 17.0688L41.4367 17.1071L41.4547 17.1462L41.4696 17.1868L41.4828 17.2275L41.4938 17.2697L41.5024 17.3119L41.5086 17.3541L41.5126 17.3971L41.5141 17.4401L41.5133 17.4831L41.5094 17.5261L41.504 17.5691L41.4961 17.6113L41.486 17.6535L41.4735 17.6942L41.4586 17.7348L41.4414 17.7747L41.4219 17.813L41.4008 17.8505L41.3773 17.8865L41.3523 17.9216L41.3249 17.9545L41.296 17.9865L41.2655 18.017L41.2327 18.0452L41.1991 18.0725L35.1549 22.5728L35.1205 22.5971L35.0845 22.6197L35.047 22.6401L35.0087 22.6588L34.9696 22.6744L34.9298 22.6893L34.8891 22.701L34.8477 22.7112L34.8062 22.7182L34.764 22.7237L34.721 22.7268H34.6788L34.6366 22.7253L34.5944 22.7213L34.5522 22.7151L34.5108 22.7065L34.4693 22.6963L34.4287 22.683L34.3896 22.6682L34.3505 22.6502L34.313 22.6315L34.2762 22.6096L34.2403 22.5861L34.2067 22.5611L34.1738 22.5337L34.1426 22.5056L34.1129 22.4751L34.0847 22.4431L34.0589 22.4094L34.0347 22.3743L34.012 22.3383L33.9917 22.3008L33.9737 22.2625L33.9573 22.2234L33.9432 22.1835L33.9315 22.1421L33.9221 22.1015L33.9151 22.0592L33.9096 22.017L33.9073 21.9748L33.9065 21.9318L33.9831 17.4315L33.9855 17.3885L33.9894 17.3463L33.9964 17.3033L34.005 17.2611L34.0167 17.2197L34.03 17.179L34.0456 17.1384L34.0636 17.0993L34.0839 17.0618L34.1058 17.0242L34.1301 16.9891L34.1566 16.9547L34.184 16.9218L34.2137 16.8906L34.245 16.8609L34.2786 16.8335L34.313 16.8077L34.3482 16.7835L34.3857 16.7616L34.424 16.742L34.4631 16.7241L34.5029 16.7084L34.5444 16.6951L34.5858 16.6842L34.628 16.6756L34.671 16.6693L34.7132 16.6654L34.757 16.6631L34.8 16.6639Z" fill="white" fill-opacity="0.5"/>
<path d="M44.8795 11.4369L44.5332 6.54421V4.49847H45.938V6.54421L45.6104 11.4369H44.8795ZM44.584 13.7289V12.4383H45.8871V13.7289H44.584Z" fill="white" fill-opacity="0.5"/>
</svg>
