<svg width="57" height="64" viewBox="0 0 57 64" fill="none" xmlns="http://www.w3.org/2000/svg">
<path d="M28.0875 64L27.7992 63.8965C-5.53137 51.8993 0.374846 9.72049 0.448766 9.29175L0.530079 8.77431L28.0875 0L55.6523 8.77431L55.7336 9.29175C55.8001 9.72049 61.7063 51.8993 28.3832 63.8965L28.0875 64ZM2.05283 10.0383C1.47626 14.8432 -1.65796 51.2562 28.0875 62.2037C57.8551 51.2192 54.6987 14.8432 54.1221 10.0605L28.0875 1.77408L2.05283 10.0383Z" fill="white" fill-opacity="0.5"/>
<path d="M28.0875 52.0694L27.6958 51.8624C13.0596 44.1821 10.9085 27.114 10.9233 17.63V17.0091L28.0875 11.5464L45.2518 17.0091V17.63C45.2518 27.114 43.1081 44.1821 28.4719 51.8624L28.0875 52.0694ZM12.6161 18.2435C12.6974 27.3653 14.9076 42.955 28.0875 50.1548C41.2749 42.9476 43.4851 27.3653 43.559 18.2435L28.0875 13.3205L12.6161 18.2435Z" fill="white" fill-opacity="0.5"/>
<path d="M43.8073 17.0267L18.2581 42.5759L19.455 43.7729L45.0043 18.2236L43.8073 17.0267Z" fill="white" fill-opacity="0.5"/>
</svg>
