<svg width="50" height="64" viewBox="0 0 50 64" fill="none" xmlns="http://www.w3.org/2000/svg">
<path d="M0.727273 0C0.346473 7.27273e-05 7.27273e-05 0.346473 0 0.727273V63.2728C0.00727273 63.6124 0.268291 64.0001 0.727273 64.0001H48.7273C49.1081 64 49.4545 63.6536 49.4546 63.2728V10.9091C49.4546 10.7246 49.3783 10.5417 49.2501 10.4091L39.0682 0.227273C38.9339 0.0855273 38.7407 0 38.5455 0H0.727273ZM1.45455 1.45455H37.8182V10.9091C37.8255 11.2588 38.0788 11.6291 38.5455 11.6364H48V62.5455H1.45455V1.45455ZM39.2727 2.5L46.9546 10.1818H39.2727V2.5ZM19.5455 13.7955C19.3592 13.8202 19.184 13.9203 19.0682 14.0682L12.3182 22.1818L8.52277 18.3864C8.25506 18.1126 7.76226 18.1071 7.48851 18.3749C7.21477 18.6427 7.20938 19.1354 7.4776 19.4091L11.8412 23.7727C12.1257 24.0702 12.6732 24.0476 12.9321 23.7276L20.2049 15.0004C20.6055 14.5558 20.1365 13.6982 19.5458 13.7959L19.5455 13.7955ZM24 20.3636C23.5983 20.3636 23.2727 20.6892 23.2727 21.0909C23.2727 21.4925 23.5983 21.8182 24 21.8182H41.4546C41.8562 21.8182 42.1818 21.4925 42.1818 21.0909C42.1818 20.6892 41.8562 20.3636 41.4546 20.3636H24ZM19.5455 29.7955C19.3592 29.8202 19.184 29.9203 19.0682 30.0682L12.3182 38.1819L8.52277 34.3864C8.25506 34.1126 7.76226 34.1071 7.48851 34.3747C7.21477 34.6425 7.20938 35.1353 7.4776 35.409L11.8412 39.7726C12.1257 40.0701 12.6732 40.0475 12.9321 39.7276L20.2049 31.0002C20.6055 30.5557 20.1365 29.6981 19.5458 29.7957L19.5455 29.7955ZM24 36.3637C23.5983 36.3637 23.2727 36.6893 23.2727 37.091C23.2727 37.4926 23.5983 37.8182 24 37.8182H41.4546C41.8562 37.8182 42.1818 37.4926 42.1818 37.091C42.1818 36.6893 41.8562 36.3637 41.4546 36.3637H24ZM19.5455 45.7956C19.3592 45.8203 19.184 45.9203 19.0682 46.0683L12.3182 54.1819L8.52277 50.3864C8.25506 50.1126 7.76226 50.1072 7.48851 50.3748C7.21477 50.6426 7.20938 51.1353 7.4776 51.4091L11.8412 55.7727C12.1257 56.0702 12.6732 56.0475 12.9321 55.7276L20.2049 47.0003C20.6055 46.5557 20.1365 45.6981 19.5458 45.7958L19.5455 45.7956ZM24 52.3637C23.5983 52.3637 23.2727 52.6893 23.2727 53.091C23.2727 53.4926 23.5983 53.8182 24 53.8182H41.4546C41.8562 53.8182 42.1818 53.4926 42.1818 53.091C42.1818 52.6893 41.8562 52.3637 41.4546 52.3637H24Z" fill="white" fill-opacity="0.5"/>
</svg>
