<svg width="44" height="44" viewBox="0 0 44 44" fill="none" xmlns="http://www.w3.org/2000/svg">
<path fill-rule="evenodd" clip-rule="evenodd" d="M11.3937 11.3934C11.0032 11.7839 11.0032 12.4171 11.3937 12.8076L20.5861 22L11.3937 31.1924C11.0032 31.5829 11.0032 32.2161 11.3937 32.6066C11.7842 32.9971 12.4174 32.9971 12.8079 32.6066L22.0003 23.4142L31.1927 32.6066C31.5832 32.9971 32.2164 32.9971 32.6069 32.6066C32.9974 32.2161 32.9974 31.5829 32.6069 31.1924L23.4145 22L32.6069 12.8076C32.9974 12.4171 32.9974 11.7839 32.6069 11.3934C32.2164 11.0029 31.5832 11.0029 31.1927 11.3934L22.0003 20.5858L12.8079 11.3934C12.4174 11.0029 11.7842 11.0029 11.3937 11.3934Z" fill="#F1F3F8"/>
</svg>
