<svg width="19" height="24" viewBox="0 0 19 24" fill="none" xmlns="http://www.w3.org/2000/svg">
<path d="M0.01 9.04688C0.01 4.05594 4.05596 0.01 9.04688 0.01C14.0378 0.01 18.0838 4.05594 18.0837 9.04688C18.0837 9.8028 17.9806 10.6797 17.7709 11.5086C17.5613 12.3377 17.2453 13.118 16.8201 13.6815L9.04688 23.9834L1.2736 13.6815C0.336935 12.4401 0.01 10.7169 0.01 9.04688ZM12.864 9.04686C12.864 6.93904 11.1547 5.22974 9.04688 5.22974C6.93904 5.22974 5.22976 6.93904 5.22976 9.04688C5.22976 11.1547 6.93904 12.864 9.04688 12.864C11.1547 12.864 12.864 11.1547 12.864 9.04686Z" fill="#FF5900" stroke="black" stroke-width="0.02"/>
</svg>
