<svg width="20" height="20" viewBox="0 0 20 20" fill="none" xmlns="http://www.w3.org/2000/svg">
<path d="M15.9378 17.137L13.1797 18.7146C12.7697 18.9583 12.3134 18.9558 11.898 18.8451C10.0766 18.2981 8.58263 16.931 7.40574 15.623C5.52258 13.2945 3.94171 10.6094 3.27792 7.69855C3.0478 6.49086 2.80717 4.96413 3.18488 3.78615C3.31035 3.33857 3.5494 2.93035 3.94314 2.72568L6.70567 1.13166C7.26127 0.868031 7.66318 1.11835 7.83261 1.64423L8.6949 5.43807C8.77389 5.88131 8.55499 6.2749 8.20431 6.48254L7.18653 7.0698C7.11879 7.12441 7.06653 7.19323 7.04319 7.27712C7.03174 8.5512 7.67005 9.89939 8.29137 10.876C8.91268 11.8526 9.52384 13.1139 10.6084 13.6643C10.7398 13.742 10.9101 13.8026 11.0371 13.7353L12.2255 13.0358C12.6128 12.8781 13.1095 12.8833 13.3998 13.1749L13.4161 13.1793L16.0779 15.8933C16.4641 16.3087 16.3619 16.8839 15.9378 17.137Z" fill="#1047D6"/>
</svg>
