<svg width="64" height="64" viewBox="0 0 64 64" fill="none" xmlns="http://www.w3.org/2000/svg">
<path d="M60.0976 0H3.90244C1.71707 0 0 1.71707 0 3.90244V60.0976C0 62.2829 1.71707 64 3.90244 64H60.0976C62.2829 64 64 62.2829 64 60.0976V3.90244C64 1.71707 62.2829 0 60.0976 0ZM62.439 3.90244V31.2195H32.7805V1.56098H60.0976C61.4244 1.56098 62.439 2.57561 62.439 3.90244ZM3.90244 1.56098H31.2195V31.2195H1.56098V3.90244C1.56098 2.57561 2.57561 1.56098 3.90244 1.56098ZM1.56098 60.0976V32.7805H31.2195V62.439H3.90244C2.57561 62.439 1.56098 61.4244 1.56098 60.0976ZM60.0976 62.439H32.7805V32.7805H62.439V60.0976C62.439 61.4244 61.4244 62.439 60.0976 62.439Z" fill="#1047D6"/>
<path d="M23.961 45.2683H16.9366V38.2439H15.3756V45.2683H8.3512V46.8293H15.3756V53.8537H16.9366V46.8293H23.961V45.2683Z" fill="#1047D6"/>
<path d="M23.961 16.156H8.3512V17.717H23.961V16.156Z" fill="#1047D6"/>
<path d="M54.9464 50.7317H39.3367V52.2927H54.9464V50.7317Z" fill="#1047D6"/>
<path d="M54.9464 42.1462H39.3367V43.7072H54.9464V42.1462Z" fill="#1047D6"/>
<path d="M41.0537 21.8535L42.1464 22.9462L47.1415 18.0291L52.0586 22.9462L53.1513 21.8535L48.2342 16.9364L53.1513 11.9413L52.0586 10.8486L47.1415 15.8438L42.1464 10.8486L41.0537 11.9413L45.9708 16.9364L41.0537 21.8535Z" fill="#1047D6"/>
</svg>
