<svg width="54" height="64" viewBox="0 0 54 64" fill="none" xmlns="http://www.w3.org/2000/svg">
<path d="M0.604789 0.00327736C0.432452 0.0361606 0.277271 0.128867 0.166636 0.265033C0.0560004 0.401199 -0.00297593 0.572072 0.000115655 0.747491V49.0748C0.000135389 49.2722 0.07855 49.4615 0.218113 49.6011C0.357676 49.7406 0.546957 49.819 0.744329 49.8191H17.4891C17.5877 49.8204 17.6857 49.8022 17.7772 49.7655C17.8687 49.7287 17.952 49.6741 18.0222 49.6048C18.0924 49.5356 18.1482 49.4531 18.1863 49.3621C18.2243 49.2711 18.2439 49.1735 18.2439 49.0748C18.2439 48.9762 18.2243 48.8786 18.1863 48.7876C18.1482 48.6966 18.0924 48.6141 18.0222 48.5448C17.952 48.4756 17.8687 48.421 17.7772 48.3842C17.6857 48.3475 17.5877 48.3292 17.4891 48.3306H1.48854V1.4917H27.6756V11.0967C27.6756 11.2941 27.754 11.4834 27.8935 11.6229C28.0331 11.7625 28.2224 11.8409 28.4198 11.8409H38.4899V20.0505C38.4874 20.1457 38.5032 20.2404 38.5364 20.3296C38.5363 20.3374 38.5363 20.3451 38.5364 20.3529L22.7451 43.5398C22.6574 43.662 22.6087 43.8079 22.6056 43.9584V48.5865L18.3264 55.6332C18.2512 55.7514 18.2109 55.8885 18.2101 56.0286V63.2614C18.211 63.3849 18.2427 63.5063 18.3022 63.6145C18.3618 63.7227 18.4473 63.8144 18.5512 63.8813C18.655 63.9483 18.7739 63.9883 18.897 63.9978C19.0202 64.0073 19.1438 63.986 19.2566 63.9359L26.1639 60.9125C26.3093 60.8512 26.4314 60.7454 26.5127 60.6101L30.7919 52.9587C30.7999 52.9511 30.8076 52.9434 30.8152 52.9355L30.8385 52.9122C30.8386 52.9044 30.8386 52.8967 30.8385 52.8889L30.8617 52.8657C30.8696 52.8581 30.8774 52.8503 30.885 52.8424L34.4898 49.9586C34.5668 49.8944 34.6301 49.8153 34.6758 49.726L48.8624 22.0041L51.8625 23.7716L44.025 39.4233C43.967 39.5115 43.9284 39.6111 43.9118 39.7154C43.8952 39.8196 43.901 39.9263 43.9288 40.0281C43.9566 40.13 44.0057 40.2248 44.0729 40.3062C44.1401 40.3876 44.2239 40.4538 44.3187 40.5003C44.4135 40.5469 44.517 40.5727 44.6226 40.5762C44.7281 40.5796 44.8331 40.5606 44.9307 40.5203C45.0284 40.48 45.1163 40.4195 45.1887 40.3426C45.261 40.2657 45.3163 40.1744 45.3506 40.0745L53.5137 23.8181C53.5976 23.6475 53.613 23.4512 53.5568 23.2696C53.5006 23.0879 53.377 22.9347 53.2114 22.8413L49.5368 20.6785L51.6299 16.5853C51.7209 16.4123 51.7403 16.2104 51.6837 16.0233C51.6271 15.8362 51.4992 15.6788 51.3276 15.5852L45.0483 11.9805C44.9436 11.9131 44.8236 11.8732 44.6994 11.8642C44.576 11.8621 44.4539 11.8908 44.3443 11.9476C44.2347 12.0045 44.1409 12.0877 44.0715 12.1898L39.9783 18.2132V11.0967C39.9776 10.9965 39.9566 10.8974 39.9166 10.8055C39.8767 10.7136 39.8185 10.6307 39.7458 10.5618L28.9314 0.189331C28.7905 0.0649243 28.6077 -0.0015443 28.4198 0.00327736H0.744329C0.697918 -0.00109245 0.6512 -0.00109245 0.604789 0.00327736ZM29.164 2.49174L37.3968 10.3525H29.164V2.49174ZM44.9087 13.6084L49.9787 16.5388L48.2344 19.9342L42.7924 16.7248L44.9087 13.6084ZM41.9551 17.9574L47.56 21.2599L33.8851 48.0283L24.6522 43.3304L41.9551 17.9574ZM7.88413 21.2831C7.78639 21.2877 7.69052 21.3115 7.60198 21.3531C7.51344 21.3948 7.43397 21.4534 7.36811 21.5258C7.30224 21.5981 7.25127 21.6827 7.2181 21.7748C7.18493 21.8668 7.17022 21.9645 7.1748 22.0622C7.17938 22.16 7.20316 22.2558 7.2448 22.3444C7.28643 22.4329 7.34509 22.5124 7.41744 22.5782C7.48979 22.6441 7.5744 22.6951 7.66644 22.7283C7.75849 22.7614 7.85616 22.7761 7.9539 22.7716H22.3963C22.4949 22.7729 22.5928 22.7547 22.6843 22.718C22.7758 22.6812 22.8591 22.6266 22.9294 22.5573C22.9996 22.4881 23.0554 22.4056 23.0934 22.3146C23.1315 22.2236 23.1511 22.126 23.1511 22.0273C23.1511 21.9287 23.1315 21.8311 23.0934 21.7401C23.0554 21.6491 22.9996 21.5666 22.9294 21.4973C22.8591 21.4281 22.7758 21.3735 22.6843 21.3367C22.5928 21.3 22.4949 21.2817 22.3963 21.2831H7.9539C7.93065 21.282 7.90737 21.282 7.88413 21.2831ZM7.81436 29.3532C7.61698 29.3717 7.43504 29.4678 7.30855 29.6205C7.18207 29.7732 7.12141 29.9698 7.13991 30.1672C7.15842 30.3646 7.25457 30.5465 7.40722 30.673C7.55987 30.7995 7.75652 30.8601 7.9539 30.8416H30.7687C30.8673 30.843 30.9652 30.8248 31.0567 30.788C31.1482 30.7512 31.2315 30.6966 31.3018 30.6274C31.372 30.5582 31.4278 30.4756 31.4658 30.3847C31.5039 30.2937 31.5235 30.196 31.5235 30.0974C31.5235 29.9988 31.5039 29.9011 31.4658 29.8101C31.4278 29.7192 31.372 29.6367 31.3018 29.5674C31.2315 29.4982 31.1482 29.4436 31.0567 29.4068C30.9652 29.37 30.8673 29.3518 30.7687 29.3532H7.9539C7.90749 29.3488 7.86077 29.3488 7.81436 29.3532ZM7.88413 37.4C7.78639 37.4046 7.69052 37.4284 7.60198 37.47C7.51344 37.5116 7.43397 37.5703 7.36811 37.6426C7.30224 37.715 7.25127 37.7996 7.2181 37.8916C7.18493 37.9837 7.17022 38.0814 7.1748 38.1791C7.17938 38.2768 7.20316 38.3727 7.2448 38.4612C7.28643 38.5498 7.34509 38.6292 7.41744 38.6951C7.48979 38.761 7.5744 38.812 7.66644 38.8451C7.75849 38.8783 7.85616 38.893 7.9539 38.8884H24.8382C24.9369 38.8898 25.0348 38.8716 25.1263 38.8348C25.2178 38.798 25.3011 38.7435 25.3713 38.6742C25.4415 38.605 25.4973 38.5225 25.5354 38.4315C25.5734 38.3405 25.5931 38.2428 25.5931 38.1442C25.5931 38.0456 25.5734 37.9479 25.5354 37.857C25.4973 37.766 25.4415 37.6835 25.3713 37.6142C25.3011 37.545 25.2178 37.4904 25.1263 37.4536C25.0348 37.4168 24.9369 37.3986 24.8382 37.4H7.9539C7.93065 37.3989 7.90737 37.3989 7.88413 37.4ZM24.094 44.7258L33.0013 49.2376L30.164 51.5168L24.094 48.3539V44.7258ZM23.6056 49.7725L29.2105 52.7029L25.3266 59.6566L19.6985 62.0986V56.2146L23.6056 49.7725Z" fill="#1047D6"/>
</svg>
