<svg width="60" height="64" viewBox="0 0 60 64" fill="none" xmlns="http://www.w3.org/2000/svg">
<path d="M46.2979 47.7352L48.4917 47.5083C50.0804 47.357 51.2151 46.0709 51.2151 44.4823V43.2719H55.3759C57.6454 43.2719 59.5366 41.3806 59.5366 39.1111V35.253C59.5366 32.9835 57.6454 31.0922 55.3759 31.0922H54.3924V28.2931C54.3924 19.8203 50.156 12.0284 42.9693 7.48936L42.8936 7.41371C40.4728 5.90071 37.8251 4.76596 35.026 4.16076V3.02601C35.026 1.3617 33.6643 0 32 0H27.5366C25.8723 0 24.5106 1.3617 24.5106 3.02601V4.16076C21.7116 4.76596 19.0638 5.82506 16.643 7.41371L16.5674 7.48936C9.45626 12.0284 5.14421 19.8203 5.14421 28.2931V31.0922H4.16076C1.89125 31.0922 0 32.9835 0 35.253V39.1111C0 41.3806 1.89125 43.2719 4.16076 43.2719H8.32151V44.4823C8.32151 46.0709 9.53191 47.357 11.1206 47.5083L13.3144 47.7352C13.6927 48.643 13.9196 49.1726 14.2222 49.9291L14.5248 50.6856L13.1631 52.3499C12.1797 53.5603 12.2553 55.3002 13.3901 56.435L16.0378 59.0827C17.1726 60.2175 18.9125 60.2931 20.1229 59.3097L21.8629 57.8723L24.8132 59.0827L25.0402 61.2766C25.1915 62.8652 26.4775 64 28.0662 64H31.7731C33.3617 64 34.6478 62.7896 34.7991 61.2766L35.026 59.0827C36.2364 58.5532 36.6903 58.4019 37.9764 57.8723L39.7163 59.3097C40.9267 60.2931 42.7423 60.2175 43.8014 59.0827L46.3735 56.435C47.5083 55.3002 47.5839 53.5603 46.6005 52.3499L45.1631 50.6099C45.5414 49.6265 45.7683 49.1726 46.0709 48.4161L46.2979 47.7352ZM35.026 5.74941C37.2955 6.27896 39.4894 7.18676 41.5319 8.39716L39.4894 12.7092L35.026 11.4232V5.74941ZM26.0236 3.10165C26.0236 2.2695 26.7045 1.58865 27.5366 1.58865H32C32.8322 1.58865 33.513 2.2695 33.513 3.10165V4.84161V12.0284V15.8865C33.513 16.7187 32.8322 17.3995 32 17.3995H27.5366C26.7045 17.3995 26.0236 16.7187 26.0236 15.8865V12.0284V4.84161V3.10165ZM24.5106 11.4232L20.1229 12.7092L18.0804 8.39716C20.1229 7.18676 22.3168 6.35461 24.5863 5.82506V11.4232H24.5106ZM6.65721 28.2931C6.65721 20.5768 10.4397 13.5414 16.7187 9.22931L18.9882 13.9196C19.1395 14.2222 19.3664 14.3735 19.669 14.3735C19.7447 14.3735 19.8203 14.3735 19.896 14.3735L24.5106 13.0875V15.9622C24.5106 17.6265 25.8723 18.9882 27.5366 18.9882H32C33.6643 18.9882 35.026 17.6265 35.026 15.9622V13.0875L39.6407 14.3735C39.7163 14.3735 39.792 14.3735 39.8676 14.3735C40.1702 14.3735 40.3972 14.2222 40.5485 13.9196L42.818 9.22931C49.1726 13.5414 52.8794 20.5768 52.8794 28.2931V31.0922H6.65721V28.2931ZM1.513 39.1111V35.253C1.513 33.8156 2.7234 32.6052 4.16076 32.6052H5.82506H53.5603H55.2246C56.6619 32.6052 57.8723 33.8156 57.8723 35.253V39.1111C57.8723 40.5485 56.6619 41.7589 55.2246 41.7589H50.3073H37.9007H21.7116H9.15366H4.23641C2.7234 41.7589 1.513 40.5485 1.513 39.1111ZM37.0686 43.2719C36.766 46.9787 33.5887 49.9291 29.8061 49.9291C26.0236 49.9291 22.8463 46.9787 22.5437 43.2719H37.0686ZM45.0875 46.7518L44.6336 47.8865C44.2553 48.7187 44.0284 49.2482 43.5745 50.5343C43.4988 50.7612 43.4988 51.0638 43.7258 51.2908L45.3901 53.3333C45.9196 53.9385 45.844 54.8463 45.3144 55.3759L42.7423 58.0236C42.2128 58.5532 41.305 58.6288 40.6241 58.0993L38.5816 56.435C38.3546 56.2837 38.052 56.208 37.8251 56.3593C36.1608 57.0402 35.7825 57.1915 34.1182 57.8723C33.8913 57.948 33.6643 58.2506 33.6643 58.4775L33.3617 61.1253C33.2861 61.8818 32.6052 62.487 31.8487 62.487H28.1418C27.3097 62.487 26.7045 61.8818 26.6288 61.1253L26.4019 58.4775C26.4019 58.1749 26.1749 57.948 25.948 57.8723L22.1655 56.2837C21.9385 56.208 21.6359 56.208 21.409 56.435L19.3664 58.0993C18.7612 58.6288 17.8534 58.5532 17.3239 58.0236L14.6761 55.3759C14.1466 54.8463 14.0709 53.9385 14.6005 53.3333L16.2648 51.2908C16.4161 51.0638 16.4917 50.7612 16.4161 50.5343L15.9622 49.3995C15.5839 48.5674 15.4326 48.0378 14.9031 46.8274C14.8274 46.6005 14.5248 46.3735 14.2979 46.3735L11.6501 46.1466C10.818 46.0709 10.2884 45.3901 10.2884 44.6336V43.4232H21.409C21.7116 47.9622 25.5697 51.5934 30.1844 51.5934C34.7991 51.5934 38.6572 47.9622 38.9598 43.4232H50.0804V44.6336C50.0804 45.4657 49.4752 46.0709 48.7187 46.1466L45.6927 46.2979C45.3901 46.2979 45.1631 46.4492 45.0875 46.7518Z" fill="#1047D6"/>
</svg>
