<svg width="66" height="66" viewBox="0 0 66 66" fill="none" xmlns="http://www.w3.org/2000/svg">
<path d="M64.7321 41.9602L24.3285 23.7187C24.1561 23.6417 23.9507 23.6774 23.8159 23.8132C23.6811 23.947 23.6435 24.1516 23.7224 24.3258L41.9657 64.7293C42.0409 64.8944 42.2051 64.999 42.3839 64.999C42.3949 64.999 42.405 64.999 42.416 64.998C42.6077 64.9843 42.7709 64.8531 42.8241 64.6688L47.7552 47.7543L64.6697 42.8213C64.8541 42.7672 64.9861 42.6049 64.999 42.4133C65.0118 42.2216 64.9063 42.04 64.7321 41.9602ZM47.2581 46.9418C47.1077 46.9858 46.9894 47.1041 46.9454 47.2545L42.2913 63.2189L25.0576 25.054L63.2226 42.2858L47.2581 46.9418Z" fill="#1047D6" stroke="#1047D6" stroke-width="0.5"/>
<path d="M37.1886 26.9824C37.4335 27.0228 37.6746 26.8595 37.7187 26.6092C37.8654 25.7645 37.9369 24.9557 37.9369 24.1358C37.9369 16.5323 31.7513 10.3467 24.1478 10.3467C16.5361 10.3467 10.344 16.5323 10.344 24.1358C10.344 31.7384 16.5361 37.9231 24.1478 37.9231C25.0025 37.9231 25.8435 37.8452 26.6459 37.6911C26.8944 37.6434 27.0577 37.4031 27.01 37.1537C26.9623 36.9051 26.7202 36.7437 26.4735 36.7905C25.7279 36.9336 24.9457 37.006 24.1487 37.006C17.0432 37.006 11.262 31.2321 11.262 24.1358C11.262 17.0386 17.0432 11.2638 24.1487 11.2638C31.2469 11.2638 37.0208 17.0386 37.0208 24.1358C37.0208 24.9025 36.9538 25.66 36.8163 26.4523C36.7722 26.7027 36.9401 26.9402 37.1886 26.9824Z" fill="#1047D6" stroke="#1047D6" stroke-width="0.5"/>
<path d="M28.1665 45.9862C26.8753 46.2329 25.5611 46.3521 24.1488 46.3521C11.8903 46.3521 1.91708 36.3862 1.91708 24.135C1.91708 11.8838 11.8893 1.91799 24.1488 1.91799C36.3991 1.91799 46.3658 11.8848 46.3658 24.136C46.3658 25.5125 46.242 26.8487 45.9999 28.1078C45.9522 28.3563 46.1146 28.5966 46.3631 28.6443C46.6043 28.692 46.851 28.5306 46.9005 28.2811C47.1536 26.9651 47.2829 25.5703 47.2829 24.135C47.2829 11.3785 36.9053 1 24.1488 1C11.3849 1 1 11.3776 1 24.135C1 36.8906 11.3849 47.2691 24.1488 47.2691C25.6198 47.2691 26.9899 47.1435 28.3389 46.8867C28.5874 46.839 28.7507 46.5997 28.703 46.3502C28.6553 46.1026 28.4178 45.9421 28.1665 45.9862Z" fill="#1047D6" stroke="#1047D6" stroke-width="0.5"/>
</svg>
