<svg width="50" height="64" viewBox="0 0 50 64" fill="none" xmlns="http://www.w3.org/2000/svg">
<path d="M0.727273 0C0.268291 0 0.00552727 0.387709 0 0.727273V63.2727C7.27273e-05 63.6535 0.346473 63.9999 0.727273 64H38.5455C38.7407 64 38.934 63.9145 39.0682 63.7727L49.25 53.5909C49.3783 53.4583 49.4531 53.2754 49.4545 53.0909V0.727273C49.4545 0.346473 49.1081 7.27273e-05 48.7273 0H0.727273ZM1.45455 1.45455H48V52.3636H38.5455C38.0788 52.3709 37.8231 52.7412 37.8182 53.0909V62.5455H1.45455V1.45455ZM9.45455 8C9.05287 8 8.72727 8.32567 8.72727 8.72727C8.72727 9.12895 9.05287 9.45455 9.45455 9.45455H40C40.4017 9.45455 40.7273 9.12895 40.7273 8.72727C40.7273 8.32567 40.4017 8 40 8H9.45455ZM9.45455 21.0909C9.05287 21.0909 8.72727 21.4166 8.72727 21.8182C8.72727 22.2199 9.05287 22.5455 9.45455 22.5455H40C40.4017 22.5455 40.7273 22.2199 40.7273 21.8182C40.7273 21.4166 40.4017 21.0909 40 21.0909H9.45455ZM9.45455 34.1818C9.05287 34.1818 8.72727 34.5075 8.72727 34.9091C8.72727 35.3108 9.05287 35.6364 9.45455 35.6364H40C40.4017 35.6364 40.7273 35.3108 40.7273 34.9091C40.7273 34.5075 40.4017 34.1818 40 34.1818H9.45455ZM42.7955 39.9773C42.6363 40.0115 42.4896 40.1013 42.3864 40.2273L33.3636 49.9318L28.0682 45.9545C27.7705 45.6753 27.2313 45.7232 26.9875 46.0506C26.7436 46.3778 26.8519 46.9081 27.2046 47.1136L33.0228 51.4773C33.3058 51.6813 33.7379 51.6403 33.9773 51.3864L43.4319 41.2045C43.8305 40.7849 43.4413 39.9447 42.8636 39.9773C42.8411 39.9773 42.818 39.9773 42.7955 39.9773ZM9.45455 47.2727C9.05287 47.2727 8.72727 47.5984 8.72727 48C8.72727 48.4017 9.05287 48.7273 9.45455 48.7273H21.8182C22.2199 48.7273 22.5455 48.4017 22.5455 48C22.5455 47.5984 22.2199 47.2727 21.8182 47.2727H9.45455ZM39.2727 53.8182H46.9545L39.2727 61.5V53.8182Z" fill="#1047D6"/>
</svg>
