<svg width="18" height="18" viewBox="0 0 18 18" fill="none" xmlns="http://www.w3.org/2000/svg">
<path d="M4.875 4.875C4.73233 5.01767 4.73233 5.24899 4.875 5.39167L8.23333 8.75L4.875 12.1083C4.73233 12.251 4.73233 12.4823 4.875 12.625C5.01767 12.7677 5.24899 12.7677 5.39167 12.625L8.75 9.26667L12.1083 12.625C12.251 12.7677 12.4823 12.7677 12.625 12.625C12.7677 12.4823 12.7677 12.251 12.625 12.1083L9.26667 8.75L12.625 5.39167C12.7677 5.24899 12.7677 5.01767 12.625 4.875C12.4823 4.73233 12.251 4.73233 12.1083 4.875L8.75 8.23333L5.39167 4.875C5.24899 4.73233 5.01767 4.73233 4.875 4.875Z" fill="#1047D6" stroke="#D61028" stroke-width="1.10712"/>
</svg>
