<svg width="22" height="22" viewBox="0 0 22 22" fill="none" xmlns="http://www.w3.org/2000/svg">
<path fill-rule="evenodd" clip-rule="evenodd" d="M22 11C22 17.0751 17.0751 22 11 22C4.92487 22 0 17.0751 0 11C0 4.92487 4.92487 0 11 0C17.0751 0 22 4.92487 22 11ZM11.3598 17.1197H11.3625C14.9688 17.1183 17.9019 14.1844 17.9034 10.5788C17.9041 8.83114 17.2243 7.18778 15.9894 5.95147C14.7545 4.71509 13.1122 4.03391 11.3624 4.03315C7.75712 4.03315 4.82285 6.96726 4.82142 10.5737C4.82093 11.7265 5.12212 12.8517 5.69453 13.8437L4.76658 17.2332L8.23403 16.3236C9.1894 16.8447 10.2651 17.1193 11.3598 17.1197Z" fill="#5D6779"/>
<path fill-rule="evenodd" clip-rule="evenodd" d="M8.59345 15.2575L8.39493 15.1397L6.33729 15.6794L6.8865 13.6733L6.75724 13.4676C6.21303 12.602 5.9256 11.6016 5.92603 10.5743C5.92722 7.57682 8.36608 5.13818 11.3649 5.13818C12.817 5.13869 14.182 5.70489 15.2084 6.73252C16.2348 7.76015 16.7998 9.12604 16.7992 10.5787C16.798 13.5764 14.3592 16.0153 11.3627 16.0153H11.3605C10.385 16.0149 9.42815 15.7528 8.59345 15.2575ZM14.434 11.9869C14.548 12.042 14.625 12.0792 14.6578 12.134C14.6987 12.2022 14.6987 12.5294 14.5625 12.9113C14.4263 13.293 13.7734 13.6414 13.4593 13.6883C13.1778 13.7304 12.8215 13.748 12.4299 13.6236C12.1926 13.5483 11.8882 13.4477 11.4982 13.2793C9.96605 12.6177 8.93061 11.1327 8.73491 10.852C8.7212 10.8324 8.71162 10.8186 8.70627 10.8115L8.70495 10.8097C8.61846 10.6943 8.03892 9.92108 8.03892 9.1208C8.03892 8.36797 8.40872 7.97338 8.57894 7.79174C8.5906 7.7793 8.60133 7.76785 8.61093 7.75736C8.76074 7.59374 8.93781 7.55283 9.04676 7.55283C9.1557 7.55283 9.26478 7.55384 9.36 7.55862C9.37175 7.55921 9.38397 7.55914 9.39661 7.55907C9.49185 7.55851 9.61059 7.55781 9.72772 7.83918C9.77278 7.94746 9.83872 8.10799 9.90827 8.27729C10.0489 8.61968 10.2043 8.99796 10.2316 9.05271C10.2725 9.13452 10.2997 9.22992 10.2452 9.33905C10.2371 9.35541 10.2295 9.37085 10.2223 9.3856C10.1814 9.46914 10.1513 9.53059 10.0818 9.61167C10.0545 9.64356 10.0263 9.67793 9.99806 9.7123C9.94184 9.78078 9.88561 9.84924 9.83666 9.89802C9.75484 9.97952 9.66967 10.0679 9.765 10.2316C9.86034 10.3952 10.1883 10.9304 10.6742 11.3638C11.1965 11.8296 11.6504 12.0265 11.8805 12.1263C11.9254 12.1458 11.9618 12.1616 11.9885 12.1749C12.1519 12.2568 12.2473 12.2431 12.3426 12.134C12.4379 12.025 12.7512 11.6568 12.8601 11.4932C12.969 11.3296 13.078 11.3569 13.2278 11.4114C13.3777 11.466 14.1812 11.8613 14.3446 11.9431C14.3765 11.9591 14.4063 11.9735 14.434 11.9869Z" fill="#5D6779"/>
</svg>
